<svg width="124" height="34" viewBox="0 0 124 34" fill="none" xmlns="http://www.w3.org/2000/svg">
<rect x="0.25" y="0.25" width="123.5" height="33.5" rx="3.75" fill="#FFE7E8"/>
<rect x="0.25" y="0.25" width="123.5" height="33.5" rx="3.75" stroke="#F0C8CD" stroke-width="0.5"/>
<path d="M0 4C0 1.79086 1.79086 0 4 0H45V34H4C1.79086 34 0 32.2091 0 30V4Z" fill="url(#paint0_linear_4137_290)"/>
<path d="M16.5341 10.8636V22.5H14.7727V12.625H14.7045L11.9205 14.4432V12.7614L14.8239 10.8636H16.5341ZM26.2443 15.9034L24.7045 16.1761C24.6402 15.9792 24.5379 15.7917 24.3977 15.6136C24.2614 15.4356 24.0758 15.2898 23.8409 15.1761C23.6061 15.0625 23.3125 15.0057 22.9602 15.0057C22.4792 15.0057 22.0777 15.1136 21.7557 15.3295C21.4337 15.5417 21.2727 15.8163 21.2727 16.1534C21.2727 16.4451 21.3807 16.6799 21.5966 16.858C21.8125 17.036 22.161 17.1818 22.642 17.2955L24.0284 17.6136C24.8314 17.7992 25.4299 18.0852 25.8239 18.4716C26.2178 18.858 26.4148 19.3598 26.4148 19.9773C26.4148 20.5 26.2633 20.9659 25.9602 21.375C25.661 21.7803 25.2424 22.0985 24.7045 22.3295C24.1705 22.5606 23.5511 22.6761 22.8466 22.6761C21.8693 22.6761 21.072 22.4678 20.4545 22.0511C19.8371 21.6307 19.4583 21.0341 19.3182 20.2614L20.9602 20.0114C21.0625 20.4394 21.2727 20.7633 21.5909 20.983C21.9091 21.1989 22.3239 21.3068 22.8352 21.3068C23.392 21.3068 23.8371 21.1913 24.1705 20.9602C24.5038 20.7254 24.6705 20.4394 24.6705 20.1023C24.6705 19.8295 24.5682 19.6004 24.3636 19.4148C24.1629 19.2292 23.8542 19.089 23.4375 18.9943L21.9602 18.6705C21.1458 18.4848 20.5436 18.1894 20.1534 17.7841C19.767 17.3788 19.5739 16.8655 19.5739 16.2443C19.5739 15.7292 19.7178 15.2784 20.0057 14.892C20.2936 14.5057 20.6913 14.2045 21.1989 13.9886C21.7064 13.7689 22.2879 13.6591 22.9432 13.6591C23.8864 13.6591 24.6288 13.8636 25.1705 14.2727C25.7121 14.678 26.0701 15.2216 26.2443 15.9034ZM32.3565 13.7727V15.1364H27.5895V13.7727H32.3565ZM28.8679 11.6818H30.5668V19.9375C30.5668 20.267 30.616 20.5152 30.7145 20.6818C30.813 20.8447 30.9399 20.9564 31.0952 21.017C31.2543 21.0739 31.4266 21.1023 31.6122 21.1023C31.7486 21.1023 31.8679 21.0928 31.9702 21.0739C32.0724 21.0549 32.152 21.0398 32.2088 21.0284L32.5156 22.4318C32.4171 22.4697 32.277 22.5076 32.0952 22.5455C31.9134 22.5871 31.6861 22.6098 31.4134 22.6136C30.9664 22.6212 30.5497 22.5417 30.1634 22.375C29.777 22.2083 29.4645 21.9508 29.2259 21.6023C28.9872 21.2538 28.8679 20.8163 28.8679 20.2898V11.6818Z" fill="white"/>
<path d="M63.976 22.156C64.6107 22.0813 65.0907 21.8733 65.416 21.532C65.7467 21.1907 65.912 20.7507 65.912 20.212C65.912 19.9827 65.8693 19.7827 65.784 19.612C65.6987 19.4413 65.5813 19.292 65.432 19.164C65.288 19.036 65.1147 18.9267 64.912 18.836C64.7093 18.74 64.4907 18.652 64.256 18.572L63.976 22.156ZM63.584 13.348C63.264 13.38 62.9893 13.4467 62.76 13.548C62.5307 13.644 62.3413 13.764 62.192 13.908C62.0427 14.0467 61.9333 14.204 61.864 14.38C61.7947 14.556 61.76 14.7427 61.76 14.94C61.76 15.164 61.8 15.3613 61.88 15.532C61.96 15.7027 62.0693 15.8547 62.208 15.988C62.352 16.116 62.52 16.2307 62.712 16.332C62.904 16.428 63.112 16.5187 63.336 16.604L63.584 13.348ZM64.384 16.94C64.768 17.0573 65.1467 17.188 65.52 17.332C65.8987 17.4707 66.2373 17.652 66.536 17.876C66.8347 18.0947 67.0747 18.3693 67.256 18.7C67.4427 19.0307 67.536 19.444 67.536 19.94C67.536 20.4253 67.4533 20.884 67.288 21.316C67.128 21.7427 66.8907 22.1213 66.576 22.452C66.2613 22.7773 65.8747 23.044 65.416 23.252C64.9627 23.4547 64.4453 23.5747 63.864 23.612L63.768 24.892C63.7627 25.004 63.7173 25.1053 63.632 25.196C63.5467 25.292 63.4373 25.34 63.304 25.34H62.664L62.8 23.588C62.1707 23.5133 61.584 23.348 61.04 23.092C60.5013 22.8307 60.04 22.5053 59.656 22.116L60.176 21.324C60.224 21.2547 60.2853 21.1987 60.36 21.156C60.44 21.108 60.5253 21.084 60.616 21.084C60.728 21.084 60.848 21.1293 60.976 21.22C61.1093 21.3107 61.264 21.4173 61.44 21.54C61.616 21.6573 61.824 21.7747 62.064 21.892C62.304 22.004 62.5867 22.0867 62.912 22.14L63.208 18.26C62.8347 18.148 62.464 18.0227 62.096 17.884C61.7333 17.74 61.4053 17.5507 61.112 17.316C60.824 17.0813 60.5893 16.788 60.408 16.436C60.232 16.084 60.144 15.6413 60.144 15.108C60.144 14.708 60.2213 14.3187 60.376 13.94C60.536 13.5613 60.7653 13.2253 61.064 12.932C61.368 12.6333 61.7413 12.3907 62.184 12.204C62.6267 12.012 63.1333 11.9027 63.704 11.876L63.784 10.804C63.7893 10.6867 63.8347 10.5827 63.92 10.492C64.0053 10.4013 64.1147 10.356 64.248 10.356H64.888L64.768 11.924C65.328 12.004 65.8133 12.1587 66.224 12.388C66.6347 12.612 66.992 12.8733 67.296 13.172L66.88 13.812C66.7627 13.9987 66.6187 14.092 66.448 14.092C66.368 14.092 66.272 14.0627 66.16 14.004C66.0533 13.9453 65.9253 13.876 65.776 13.796C65.632 13.716 65.4667 13.636 65.28 13.556C65.0933 13.476 64.8853 13.4147 64.656 13.372L64.384 16.94ZM69.2253 15.148C69.3053 14.604 69.4546 14.1267 69.6733 13.716C69.8973 13.3053 70.1773 12.964 70.5133 12.692C70.8493 12.4147 71.2333 12.2067 71.6653 12.068C72.1026 11.924 72.5746 11.852 73.0813 11.852C73.5933 11.852 74.0573 11.9267 74.4733 12.076C74.8946 12.22 75.2546 12.4227 75.5533 12.684C75.8573 12.9453 76.0893 13.2573 76.2493 13.62C76.4146 13.9827 76.4973 14.38 76.4973 14.812C76.4973 15.18 76.4519 15.5053 76.3612 15.788C76.2759 16.0653 76.1506 16.3107 75.9853 16.524C75.8253 16.7373 75.6279 16.916 75.3933 17.06C75.1586 17.204 74.8946 17.324 74.6013 17.42C75.3159 17.628 75.8519 17.9613 76.2093 18.42C76.5666 18.8733 76.7453 19.444 76.7453 20.132C76.7453 20.6867 76.6413 21.18 76.4333 21.612C76.2253 22.044 75.9426 22.4093 75.5853 22.708C75.2333 23.0067 74.8199 23.236 74.3453 23.396C73.8759 23.5507 73.3773 23.628 72.8493 23.628C72.2573 23.628 71.7453 23.5587 71.3133 23.42C70.8813 23.276 70.5079 23.0733 70.1933 22.812C69.8839 22.5453 69.6253 22.2253 69.4173 21.852C69.2093 21.4787 69.0333 21.06 68.8893 20.596L69.6333 20.284C69.8306 20.1987 70.0173 20.1747 70.1933 20.212C70.3746 20.2493 70.5053 20.348 70.5853 20.508C70.6706 20.6787 70.7666 20.8627 70.8733 21.06C70.9799 21.252 71.1159 21.4307 71.2813 21.596C71.4519 21.756 71.6599 21.892 71.9053 22.004C72.1559 22.1107 72.4626 22.164 72.8253 22.164C73.1933 22.164 73.5133 22.1053 73.7853 21.988C74.0626 21.8653 74.2919 21.7107 74.4733 21.524C74.6599 21.332 74.7986 21.1187 74.8893 20.884C74.9799 20.6493 75.0253 20.4173 75.0253 20.188C75.0253 19.9 74.9906 19.636 74.9213 19.396C74.8519 19.1507 74.7159 18.9427 74.5133 18.772C74.3159 18.6013 74.0333 18.468 73.6653 18.372C73.3026 18.2707 72.8253 18.22 72.2333 18.22V16.98C72.7186 16.9747 73.1266 16.9267 73.4573 16.836C73.7933 16.74 74.0599 16.612 74.2573 16.452C74.4599 16.2867 74.6039 16.0893 74.6893 15.86C74.7799 15.6307 74.8253 15.38 74.8253 15.108C74.8253 14.8147 74.7799 14.556 74.6893 14.332C74.5986 14.108 74.4706 13.9213 74.3053 13.772C74.1453 13.6173 73.9533 13.5027 73.7293 13.428C73.5053 13.3533 73.2573 13.316 72.9852 13.316C72.7239 13.316 72.4813 13.3533 72.2573 13.428C72.0386 13.5027 71.8413 13.6067 71.6653 13.74C71.4946 13.8733 71.3506 14.0333 71.2333 14.22C71.1159 14.4013 71.0306 14.6013 70.9773 14.82C70.9026 15.0387 70.8013 15.1853 70.6733 15.26C70.5506 15.3347 70.3693 15.3507 70.1293 15.308L69.2253 15.148ZM79.3785 23.492C79.2238 23.492 79.0825 23.4653 78.9545 23.412C78.8265 23.3533 78.7145 23.276 78.6185 23.18C78.5278 23.0787 78.4558 22.9613 78.4025 22.828C78.3545 22.6947 78.3305 22.548 78.3305 22.388C78.3305 22.2493 78.3545 22.1187 78.4025 21.996C78.4558 21.8733 78.5278 21.7667 78.6185 21.676C78.7145 21.5853 78.8265 21.516 78.9545 21.468C79.0878 21.4147 79.2318 21.388 79.3865 21.388C79.5678 21.388 79.7278 21.4227 79.8665 21.492C80.0052 21.556 80.1198 21.6467 80.2105 21.764C80.3065 21.876 80.3758 22.0093 80.4185 22.164C80.4665 22.3133 80.4905 22.4733 80.4905 22.644C80.4905 22.8893 80.4532 23.148 80.3785 23.42C80.3092 23.692 80.2025 23.9613 80.0585 24.228C79.9198 24.5 79.7465 24.764 79.5385 25.02C79.3358 25.276 79.1038 25.5107 78.8425 25.724L78.5465 25.452C78.5038 25.4093 78.4718 25.3693 78.4505 25.332C78.4345 25.2947 78.4265 25.2467 78.4265 25.188C78.4265 25.0973 78.4718 25.012 78.5625 24.932C78.6158 24.8733 78.6852 24.796 78.7705 24.7C78.8558 24.604 78.9412 24.4947 79.0265 24.372C79.1118 24.2493 79.1892 24.1133 79.2585 23.964C79.3332 23.8147 79.3865 23.6573 79.4185 23.492H79.3785ZM90.09 17.74C90.09 18.748 89.9807 19.62 89.762 20.356C89.5487 21.092 89.2527 21.7027 88.874 22.188C88.4953 22.6733 88.05 23.0333 87.538 23.268C87.026 23.5027 86.474 23.62 85.882 23.62C85.29 23.62 84.738 23.5027 84.226 23.268C83.714 23.0333 83.2687 22.6733 82.89 22.188C82.5167 21.7027 82.2233 21.092 82.01 20.356C81.7967 19.62 81.69 18.748 81.69 17.74C81.69 16.732 81.7967 15.86 82.01 15.124C82.2233 14.3827 82.5167 13.772 82.89 13.292C83.2687 12.8067 83.714 12.4467 84.226 12.212C84.738 11.972 85.29 11.852 85.882 11.852C86.474 11.852 87.026 11.972 87.538 12.212C88.05 12.4467 88.4953 12.8067 88.874 13.292C89.2527 13.772 89.5487 14.3827 89.762 15.124C89.9807 15.86 90.09 16.732 90.09 17.74ZM88.314 17.74C88.314 16.8867 88.2447 16.1773 88.106 15.612C87.9727 15.0413 87.794 14.5853 87.57 14.244C87.346 13.9027 87.0873 13.66 86.794 13.516C86.5007 13.372 86.1967 13.3 85.882 13.3C85.562 13.3 85.2553 13.372 84.962 13.516C84.674 13.66 84.418 13.9027 84.194 14.244C83.97 14.5853 83.7913 15.0413 83.658 15.612C83.5247 16.1773 83.458 16.8867 83.458 17.74C83.458 18.5933 83.5247 19.3053 83.658 19.876C83.7913 20.4413 83.97 20.8947 84.194 21.236C84.418 21.5773 84.674 21.82 84.962 21.964C85.2553 22.108 85.562 22.18 85.882 22.18C86.1967 22.18 86.5007 22.108 86.794 21.964C87.0873 21.82 87.346 21.5773 87.57 21.236C87.794 20.8947 87.9727 20.4413 88.106 19.876C88.2447 19.3053 88.314 18.5933 88.314 17.74ZM99.3713 17.74C99.3713 18.748 99.2619 19.62 99.0433 20.356C98.8299 21.092 98.5339 21.7027 98.1553 22.188C97.7766 22.6733 97.3313 23.0333 96.8193 23.268C96.3073 23.5027 95.7553 23.62 95.1633 23.62C94.5713 23.62 94.0193 23.5027 93.5073 23.268C92.9953 23.0333 92.5499 22.6733 92.1713 22.188C91.7979 21.7027 91.5046 21.092 91.2913 20.356C91.0779 19.62 90.9713 18.748 90.9713 17.74C90.9713 16.732 91.0779 15.86 91.2913 15.124C91.5046 14.3827 91.7979 13.772 92.1713 13.292C92.5499 12.8067 92.9953 12.4467 93.5073 12.212C94.0193 11.972 94.5713 11.852 95.1633 11.852C95.7553 11.852 96.3073 11.972 96.8193 12.212C97.3313 12.4467 97.7766 12.8067 98.1553 13.292C98.5339 13.772 98.8299 14.3827 99.0433 15.124C99.2619 15.86 99.3713 16.732 99.3713 17.74ZM97.5953 17.74C97.5953 16.8867 97.5259 16.1773 97.3873 15.612C97.2539 15.0413 97.0753 14.5853 96.8513 14.244C96.6273 13.9027 96.3686 13.66 96.0753 13.516C95.7819 13.372 95.4779 13.3 95.1633 13.3C94.8433 13.3 94.5366 13.372 94.2433 13.516C93.9553 13.66 93.6993 13.9027 93.4753 14.244C93.2513 14.5853 93.0726 15.0413 92.9393 15.612C92.8059 16.1773 92.7393 16.8867 92.7393 17.74C92.7393 18.5933 92.8059 19.3053 92.9393 19.876C93.0726 20.4413 93.2513 20.8947 93.4753 21.236C93.6993 21.5773 93.9553 21.82 94.2433 21.964C94.5366 22.108 94.8433 22.18 95.1633 22.18C95.4779 22.18 95.7819 22.108 96.0753 21.964C96.3686 21.82 96.6273 21.5773 96.8513 21.236C97.0753 20.8947 97.2539 20.4413 97.3873 19.876C97.5259 19.3053 97.5953 18.5933 97.5953 17.74ZM108.653 17.74C108.653 18.748 108.543 19.62 108.325 20.356C108.111 21.092 107.815 21.7027 107.437 22.188C107.058 22.6733 106.613 23.0333 106.101 23.268C105.589 23.5027 105.037 23.62 104.445 23.62C103.853 23.62 103.301 23.5027 102.789 23.268C102.277 23.0333 101.831 22.6733 101.453 22.188C101.079 21.7027 100.786 21.092 100.573 20.356C100.359 19.62 100.253 18.748 100.253 17.74C100.253 16.732 100.359 15.86 100.573 15.124C100.786 14.3827 101.079 13.772 101.453 13.292C101.831 12.8067 102.277 12.4467 102.789 12.212C103.301 11.972 103.853 11.852 104.445 11.852C105.037 11.852 105.589 11.972 106.101 12.212C106.613 12.4467 107.058 12.8067 107.437 13.292C107.815 13.772 108.111 14.3827 108.325 15.124C108.543 15.86 108.653 16.732 108.653 17.74ZM106.877 17.74C106.877 16.8867 106.807 16.1773 106.669 15.612C106.535 15.0413 106.357 14.5853 106.133 14.244C105.909 13.9027 105.65 13.66 105.357 13.516C105.063 13.372 104.759 13.3 104.445 13.3C104.125 13.3 103.818 13.372 103.525 13.516C103.237 13.66 102.981 13.9027 102.757 14.244C102.533 14.5853 102.354 15.0413 102.221 15.612C102.087 16.1773 102.021 16.8867 102.021 17.74C102.021 18.5933 102.087 19.3053 102.221 19.876C102.354 20.4413 102.533 20.8947 102.757 21.236C102.981 21.5773 103.237 21.82 103.525 21.964C103.818 22.108 104.125 22.18 104.445 22.18C104.759 22.18 105.063 22.108 105.357 21.964C105.65 21.82 105.909 21.5773 106.133 21.236C106.357 20.8947 106.535 20.4413 106.669 19.876C106.807 19.3053 106.877 18.5933 106.877 17.74Z" fill="#601438"/>
<defs>
<linearGradient id="paint0_linear_4137_290" x1="0" y1="0" x2="31.6346" y2="16.8274" gradientUnits="userSpaceOnUse">
<stop stop-color="#F21B4F"/>
<stop offset="1" stop-color="#F77078"/>
</linearGradient>
</defs>
</svg>
