<svg width="124" height="34" viewBox="0 0 124 34" fill="none" xmlns="http://www.w3.org/2000/svg">
<rect x="0.25" y="0.25" width="123.5" height="33.5" rx="3.75" fill="#FFE7E8"/>
<path d="M0 4C0 1.79086 1.79086 0 4 0H45V34H4C1.79086 34 0 32.2091 0 30V4Z" fill="url(#paint0_linear_109_261)"/>
<path d="M16.5341 10.8636V22.5H14.7727V12.625H14.7045L11.9205 14.4432V12.7614L14.8239 10.8636H16.5341ZM26.2443 15.9034L24.7045 16.1761C24.6402 15.9792 24.5379 15.7917 24.3977 15.6136C24.2614 15.4356 24.0758 15.2898 23.8409 15.1761C23.6061 15.0625 23.3125 15.0057 22.9602 15.0057C22.4792 15.0057 22.0777 15.1136 21.7557 15.3295C21.4337 15.5417 21.2727 15.8163 21.2727 16.1534C21.2727 16.4451 21.3807 16.6799 21.5966 16.858C21.8125 17.036 22.161 17.1818 22.642 17.2955L24.0284 17.6136C24.8314 17.7992 25.4299 18.0852 25.8239 18.4716C26.2178 18.858 26.4148 19.3598 26.4148 19.9773C26.4148 20.5 26.2633 20.9659 25.9602 21.375C25.661 21.7803 25.2424 22.0985 24.7045 22.3295C24.1705 22.5606 23.5511 22.6761 22.8466 22.6761C21.8693 22.6761 21.072 22.4678 20.4545 22.0511C19.8371 21.6307 19.4583 21.0341 19.3182 20.2614L20.9602 20.0114C21.0625 20.4394 21.2727 20.7633 21.5909 20.983C21.9091 21.1989 22.3239 21.3068 22.8352 21.3068C23.392 21.3068 23.8371 21.1913 24.1705 20.9602C24.5038 20.7254 24.6705 20.4394 24.6705 20.1023C24.6705 19.8295 24.5682 19.6004 24.3636 19.4148C24.1629 19.2292 23.8542 19.089 23.4375 18.9943L21.9602 18.6705C21.1458 18.4848 20.5436 18.1894 20.1534 17.7841C19.767 17.3788 19.5739 16.8655 19.5739 16.2443C19.5739 15.7292 19.7178 15.2784 20.0057 14.892C20.2936 14.5057 20.6913 14.2045 21.1989 13.9886C21.7064 13.7689 22.2879 13.6591 22.9432 13.6591C23.8864 13.6591 24.6288 13.8636 25.1705 14.2727C25.7121 14.678 26.0701 15.2216 26.2443 15.9034ZM32.3565 13.7727V15.1364H27.5895V13.7727H32.3565ZM28.8679 11.6818H30.5668V19.9375C30.5668 20.267 30.616 20.5152 30.7145 20.6818C30.813 20.8447 30.9399 20.9564 31.0952 21.017C31.2543 21.0739 31.4266 21.1023 31.6122 21.1023C31.7486 21.1023 31.8679 21.0928 31.9702 21.0739C32.0724 21.0549 32.152 21.0398 32.2088 21.0284L32.5156 22.4318C32.4171 22.4697 32.277 22.5076 32.0952 22.5455C31.9134 22.5871 31.6861 22.6098 31.4134 22.6136C30.9664 22.6212 30.5497 22.5417 30.1634 22.375C29.777 22.2083 29.4645 21.9508 29.2259 21.6023C28.9872 21.2538 28.8679 20.8163 28.8679 20.2898V11.6818Z" fill="white"/>
<path d="M63.976 22.156C64.6107 22.0813 65.0907 21.8733 65.416 21.532C65.7467 21.1907 65.912 20.7507 65.912 20.212C65.912 19.9827 65.8693 19.7827 65.784 19.612C65.6987 19.4413 65.5813 19.292 65.432 19.164C65.288 19.036 65.1147 18.9267 64.912 18.836C64.7093 18.74 64.4907 18.652 64.256 18.572L63.976 22.156ZM63.584 13.348C63.264 13.38 62.9893 13.4467 62.76 13.548C62.5307 13.644 62.3413 13.764 62.192 13.908C62.0427 14.0467 61.9333 14.204 61.864 14.38C61.7947 14.556 61.76 14.7427 61.76 14.94C61.76 15.164 61.8 15.3613 61.88 15.532C61.96 15.7027 62.0693 15.8547 62.208 15.988C62.352 16.116 62.52 16.2307 62.712 16.332C62.904 16.428 63.112 16.5187 63.336 16.604L63.584 13.348ZM64.384 16.94C64.768 17.0573 65.1467 17.188 65.52 17.332C65.8987 17.4707 66.2373 17.652 66.536 17.876C66.8347 18.0947 67.0747 18.3693 67.256 18.7C67.4427 19.0307 67.536 19.444 67.536 19.94C67.536 20.4253 67.4533 20.884 67.288 21.316C67.128 21.7427 66.8907 22.1213 66.576 22.452C66.2613 22.7773 65.8747 23.044 65.416 23.252C64.9627 23.4547 64.4453 23.5747 63.864 23.612L63.768 24.892C63.7627 25.004 63.7173 25.1053 63.632 25.196C63.5467 25.292 63.4373 25.34 63.304 25.34H62.664L62.8 23.588C62.1707 23.5133 61.584 23.348 61.04 23.092C60.5013 22.8307 60.04 22.5053 59.656 22.116L60.176 21.324C60.224 21.2547 60.2853 21.1987 60.36 21.156C60.44 21.108 60.5253 21.084 60.616 21.084C60.728 21.084 60.848 21.1293 60.976 21.22C61.1093 21.3107 61.264 21.4173 61.44 21.54C61.616 21.6573 61.824 21.7747 62.064 21.892C62.304 22.004 62.5867 22.0867 62.912 22.14L63.208 18.26C62.8347 18.148 62.464 18.0227 62.096 17.884C61.7333 17.74 61.4053 17.5507 61.112 17.316C60.824 17.0813 60.5893 16.788 60.408 16.436C60.232 16.084 60.144 15.6413 60.144 15.108C60.144 14.708 60.2213 14.3187 60.376 13.94C60.536 13.5613 60.7653 13.2253 61.064 12.932C61.368 12.6333 61.7413 12.3907 62.184 12.204C62.6267 12.012 63.1333 11.9027 63.704 11.876L63.784 10.804C63.7893 10.6867 63.8347 10.5827 63.92 10.492C64.0053 10.4013 64.1147 10.356 64.248 10.356H64.888L64.768 11.924C65.328 12.004 65.8133 12.1587 66.224 12.388C66.6347 12.612 66.992 12.8733 67.296 13.172L66.88 13.812C66.7627 13.9987 66.6187 14.092 66.448 14.092C66.368 14.092 66.272 14.0627 66.16 14.004C66.0533 13.9453 65.9253 13.876 65.776 13.796C65.632 13.716 65.4667 13.636 65.28 13.556C65.0933 13.476 64.8853 13.4147 64.656 13.372L64.384 16.94ZM76.1533 21.876C76.3399 21.876 76.4866 21.932 76.5933 22.044C76.6999 22.1507 76.7533 22.2893 76.7533 22.46V23.5H68.9613V22.916C68.9613 22.7987 68.9853 22.676 69.0333 22.548C69.0813 22.42 69.1586 22.3027 69.2653 22.196L72.8493 18.604C73.1533 18.3 73.4226 18.0093 73.6573 17.732C73.8973 17.4547 74.0999 17.1773 74.2653 16.9C74.4359 16.6227 74.5639 16.3427 74.6493 16.06C74.7399 15.772 74.7853 15.4707 74.7853 15.156C74.7853 14.852 74.7373 14.5853 74.6413 14.356C74.5506 14.1213 74.4226 13.9293 74.2573 13.78C74.0973 13.6253 73.9026 13.5107 73.6733 13.436C73.4493 13.356 73.2013 13.316 72.9293 13.316C72.6679 13.316 72.4253 13.3533 72.2013 13.428C71.9826 13.5027 71.7853 13.6067 71.6093 13.74C71.4386 13.8733 71.2946 14.0333 71.1773 14.22C71.0653 14.4013 70.9826 14.6013 70.9293 14.82C70.8493 15.0387 70.7453 15.1853 70.6173 15.26C70.4946 15.3347 70.3133 15.3507 70.0733 15.308L69.1693 15.148C69.2493 14.604 69.3986 14.1267 69.6173 13.716C69.8413 13.3053 70.1213 12.964 70.4573 12.692C70.7933 12.4147 71.1773 12.2067 71.6093 12.068C72.0466 11.924 72.5186 11.852 73.0253 11.852C73.5373 11.852 74.0066 11.9293 74.4333 12.084C74.8653 12.2333 75.2359 12.4493 75.5453 12.732C75.8599 13.0093 76.1053 13.348 76.2812 13.748C76.4572 14.148 76.5452 14.5987 76.5452 15.1C76.5452 15.5267 76.4813 15.9213 76.3533 16.284C76.2306 16.6467 76.0626 16.9933 75.8493 17.324C75.6359 17.6547 75.3853 17.9773 75.0973 18.292C74.8146 18.6013 74.5159 18.916 74.2013 19.236L71.4173 22.084C71.6466 22.02 71.8759 21.9693 72.1053 21.932C72.3399 21.8947 72.5613 21.876 72.7693 21.876H76.1533ZM79.3785 23.492C79.2238 23.492 79.0825 23.4653 78.9545 23.412C78.8265 23.3533 78.7145 23.276 78.6185 23.18C78.5278 23.0787 78.4558 22.9613 78.4025 22.828C78.3545 22.6947 78.3305 22.548 78.3305 22.388C78.3305 22.2493 78.3545 22.1187 78.4025 21.996C78.4558 21.8733 78.5278 21.7667 78.6185 21.676C78.7145 21.5853 78.8265 21.516 78.9545 21.468C79.0878 21.4147 79.2318 21.388 79.3865 21.388C79.5678 21.388 79.7278 21.4227 79.8665 21.492C80.0052 21.556 80.1198 21.6467 80.2105 21.764C80.3065 21.876 80.3758 22.0093 80.4185 22.164C80.4665 22.3133 80.4905 22.4733 80.4905 22.644C80.4905 22.8893 80.4532 23.148 80.3785 23.42C80.3092 23.692 80.2025 23.9613 80.0585 24.228C79.9198 24.5 79.7465 24.764 79.5385 25.02C79.3358 25.276 79.1038 25.5107 78.8425 25.724L78.5465 25.452C78.5038 25.4093 78.4718 25.3693 78.4505 25.332C78.4345 25.2947 78.4265 25.2467 78.4265 25.188C78.4265 25.0973 78.4718 25.012 78.5625 24.932C78.6158 24.8733 78.6852 24.796 78.7705 24.7C78.8558 24.604 78.9412 24.4947 79.0265 24.372C79.1118 24.2493 79.1892 24.1133 79.2585 23.964C79.3332 23.8147 79.3865 23.6573 79.4185 23.492H79.3785ZM84.33 16.236C84.6073 16.1773 84.8713 16.1347 85.122 16.108C85.378 16.0813 85.6233 16.068 85.858 16.068C86.4607 16.068 86.9913 16.1587 87.45 16.34C87.914 16.516 88.3007 16.7613 88.61 17.076C88.9247 17.3907 89.1593 17.7613 89.314 18.188C89.474 18.6093 89.554 19.068 89.554 19.564C89.554 20.1773 89.4473 20.7347 89.234 21.236C89.0207 21.7373 88.7247 22.1667 88.346 22.524C87.9673 22.876 87.5193 23.148 87.002 23.34C86.49 23.532 85.9353 23.628 85.338 23.628C84.986 23.628 84.65 23.5933 84.33 23.524C84.0153 23.4547 83.7193 23.3613 83.442 23.244C83.1647 23.1213 82.9087 22.9827 82.674 22.828C82.4393 22.668 82.2287 22.5027 82.042 22.332L82.57 21.596C82.682 21.436 82.8313 21.356 83.018 21.356C83.1353 21.356 83.2633 21.3987 83.402 21.484C83.5407 21.5693 83.7007 21.6627 83.882 21.764C84.0687 21.86 84.2873 21.9507 84.538 22.036C84.7887 22.1213 85.0873 22.164 85.434 22.164C85.8127 22.164 86.1513 22.1027 86.45 21.98C86.7487 21.8573 86.9993 21.6867 87.202 21.468C87.41 21.244 87.5673 20.9773 87.674 20.668C87.7807 20.3587 87.834 20.02 87.834 19.652C87.834 19.316 87.7833 19.0147 87.682 18.748C87.586 18.4813 87.4393 18.2547 87.242 18.068C87.05 17.8813 86.8073 17.74 86.514 17.644C86.2207 17.5427 85.882 17.492 85.498 17.492C85.2153 17.492 84.9247 17.516 84.626 17.564C84.3327 17.612 84.034 17.6867 83.73 17.788L82.658 17.484L83.602 11.98H89.178V12.724C89.178 12.9693 89.1007 13.1693 88.946 13.324C88.7913 13.4787 88.5327 13.556 88.17 13.556H84.794L84.33 16.236ZM99.3713 17.74C99.3713 18.748 99.2619 19.62 99.0433 20.356C98.8299 21.092 98.5339 21.7027 98.1553 22.188C97.7766 22.6733 97.3313 23.0333 96.8193 23.268C96.3073 23.5027 95.7553 23.62 95.1633 23.62C94.5713 23.62 94.0193 23.5027 93.5073 23.268C92.9953 23.0333 92.5499 22.6733 92.1713 22.188C91.7979 21.7027 91.5046 21.092 91.2913 20.356C91.0779 19.62 90.9713 18.748 90.9713 17.74C90.9713 16.732 91.0779 15.86 91.2913 15.124C91.5046 14.3827 91.7979 13.772 92.1713 13.292C92.5499 12.8067 92.9953 12.4467 93.5073 12.212C94.0193 11.972 94.5713 11.852 95.1633 11.852C95.7553 11.852 96.3073 11.972 96.8193 12.212C97.3313 12.4467 97.7766 12.8067 98.1553 13.292C98.5339 13.772 98.8299 14.3827 99.0433 15.124C99.2619 15.86 99.3713 16.732 99.3713 17.74ZM97.5953 17.74C97.5953 16.8867 97.5259 16.1773 97.3873 15.612C97.2539 15.0413 97.0753 14.5853 96.8513 14.244C96.6273 13.9027 96.3686 13.66 96.0753 13.516C95.7819 13.372 95.4779 13.3 95.1633 13.3C94.8433 13.3 94.5366 13.372 94.2433 13.516C93.9553 13.66 93.6993 13.9027 93.4753 14.244C93.2513 14.5853 93.0726 15.0413 92.9393 15.612C92.8059 16.1773 92.7393 16.8867 92.7393 17.74C92.7393 18.5933 92.8059 19.3053 92.9393 19.876C93.0726 20.4413 93.2513 20.8947 93.4753 21.236C93.6993 21.5773 93.9553 21.82 94.2433 21.964C94.5366 22.108 94.8433 22.18 95.1633 22.18C95.4779 22.18 95.7819 22.108 96.0753 21.964C96.3686 21.82 96.6273 21.5773 96.8513 21.236C97.0753 20.8947 97.2539 20.4413 97.3873 19.876C97.5259 19.3053 97.5953 18.5933 97.5953 17.74ZM108.653 17.74C108.653 18.748 108.543 19.62 108.325 20.356C108.111 21.092 107.815 21.7027 107.437 22.188C107.058 22.6733 106.613 23.0333 106.101 23.268C105.589 23.5027 105.037 23.62 104.445 23.62C103.853 23.62 103.301 23.5027 102.789 23.268C102.277 23.0333 101.831 22.6733 101.453 22.188C101.079 21.7027 100.786 21.092 100.573 20.356C100.359 19.62 100.253 18.748 100.253 17.74C100.253 16.732 100.359 15.86 100.573 15.124C100.786 14.3827 101.079 13.772 101.453 13.292C101.831 12.8067 102.277 12.4467 102.789 12.212C103.301 11.972 103.853 11.852 104.445 11.852C105.037 11.852 105.589 11.972 106.101 12.212C106.613 12.4467 107.058 12.8067 107.437 13.292C107.815 13.772 108.111 14.3827 108.325 15.124C108.543 15.86 108.653 16.732 108.653 17.74ZM106.877 17.74C106.877 16.8867 106.807 16.1773 106.669 15.612C106.535 15.0413 106.357 14.5853 106.133 14.244C105.909 13.9027 105.65 13.66 105.357 13.516C105.063 13.372 104.759 13.3 104.445 13.3C104.125 13.3 103.818 13.372 103.525 13.516C103.237 13.66 102.981 13.9027 102.757 14.244C102.533 14.5853 102.354 15.0413 102.221 15.612C102.087 16.1773 102.021 16.8867 102.021 17.74C102.021 18.5933 102.087 19.3053 102.221 19.876C102.354 20.4413 102.533 20.8947 102.757 21.236C102.981 21.5773 103.237 21.82 103.525 21.964C103.818 22.108 104.125 22.18 104.445 22.18C104.759 22.18 105.063 22.108 105.357 21.964C105.65 21.82 105.909 21.5773 106.133 21.236C106.357 20.8947 106.535 20.4413 106.669 19.876C106.807 19.3053 106.877 18.5933 106.877 17.74Z" fill="#601438"/>
<rect x="0.25" y="0.25" width="123.5" height="33.5" rx="3.75" stroke="#F0C8CD" stroke-width="0.5"/>
<defs>
<linearGradient id="paint0_linear_109_261" x1="0" y1="0" x2="31.6346" y2="16.8274" gradientUnits="userSpaceOnUse">
<stop stop-color="#F21B4F"/>
<stop offset="1" stop-color="#F77078"/>
</linearGradient>
</defs>
</svg>
