<svg width="131" height="34" viewBox="0 0 131 34" fill="none" xmlns="http://www.w3.org/2000/svg">
<rect x="0.25" y="0.25" width="130.5" height="33.5" rx="3.75" fill="#E9F4FF"/>
<rect x="0.25" y="0.25" width="130.5" height="33.5" rx="3.75" stroke="#D0DEEC" stroke-width="0.5"/>
<path d="M0 4C0 1.79086 1.79086 0 4 0H52V34H4C1.79086 34 0 32.2091 0 30V4Z" fill="url(#paint0_linear_4137_295)"/>
<path d="M12.1193 22.5V21.2273L16.0568 17.1477C16.4773 16.7045 16.8239 16.3163 17.0966 15.983C17.3731 15.6458 17.5795 15.3258 17.7159 15.0227C17.8523 14.7197 17.9205 14.3977 17.9205 14.0568C17.9205 13.6705 17.8295 13.3371 17.6477 13.0568C17.4659 12.7727 17.2178 12.5549 16.9034 12.4034C16.589 12.2481 16.2348 12.1705 15.8409 12.1705C15.4242 12.1705 15.0606 12.2557 14.75 12.4261C14.4394 12.5966 14.2008 12.8371 14.0341 13.1477C13.8674 13.4583 13.7841 13.822 13.7841 14.2386H12.108C12.108 13.5303 12.2708 12.911 12.5966 12.3807C12.9223 11.8504 13.3693 11.4394 13.9375 11.1477C14.5057 10.8523 15.1515 10.7045 15.875 10.7045C16.6061 10.7045 17.25 10.8504 17.8068 11.142C18.3674 11.4299 18.8049 11.8239 19.1193 12.3239C19.4337 12.8201 19.5909 13.3807 19.5909 14.0057C19.5909 14.4375 19.5095 14.8598 19.3466 15.2727C19.1875 15.6856 18.9091 16.1458 18.5114 16.6534C18.1136 17.1572 17.5606 17.7689 16.8523 18.4886L14.5398 20.9091V20.9943H19.7784V22.5H12.1193ZM23.6534 17.3182V22.5H21.9545V13.7727H23.5852V15.1932H23.6932C23.8939 14.7311 24.2083 14.3598 24.6364 14.0795C25.0682 13.7992 25.6117 13.6591 26.267 13.6591C26.8617 13.6591 27.3826 13.7841 27.8295 14.0341C28.2765 14.2803 28.6231 14.6477 28.8693 15.1364C29.1155 15.625 29.2386 16.2292 29.2386 16.9489V22.5H27.5398V17.1534C27.5398 16.5208 27.375 16.0265 27.0455 15.6705C26.7159 15.3106 26.2633 15.1307 25.6875 15.1307C25.2936 15.1307 24.9432 15.2159 24.6364 15.3864C24.3333 15.5568 24.0928 15.8068 23.9148 16.1364C23.7405 16.4621 23.6534 16.8561 23.6534 17.3182ZM34.7841 22.6705C34.0795 22.6705 33.4508 22.4905 32.8977 22.1307C32.3485 21.767 31.9167 21.25 31.6023 20.5795C31.2917 19.9053 31.1364 19.0966 31.1364 18.1534C31.1364 17.2102 31.2936 16.4034 31.608 15.733C31.9261 15.0625 32.3617 14.5492 32.9148 14.1932C33.4678 13.8371 34.0947 13.6591 34.7955 13.6591C35.3371 13.6591 35.7727 13.75 36.1023 13.9318C36.4356 14.1098 36.6932 14.3182 36.875 14.5568C37.0606 14.7955 37.2045 15.0057 37.3068 15.1875H37.4091V10.8636H39.108V22.5H37.4489V21.142H37.3068C37.2045 21.3277 37.0568 21.5398 36.8636 21.7784C36.6742 22.017 36.4129 22.2254 36.0795 22.4034C35.7462 22.5814 35.3144 22.6705 34.7841 22.6705ZM35.1591 21.2216C35.6477 21.2216 36.0606 21.0928 36.3977 20.8352C36.7386 20.5739 36.9962 20.2121 37.1705 19.75C37.3485 19.2879 37.4375 18.75 37.4375 18.1364C37.4375 17.5303 37.3504 17 37.1761 16.5455C37.0019 16.0909 36.7462 15.7367 36.4091 15.483C36.072 15.2292 35.6553 15.1023 35.1591 15.1023C34.6477 15.1023 34.2216 15.2348 33.8807 15.5C33.5398 15.7652 33.2822 16.1269 33.108 16.5852C32.9375 17.0436 32.8523 17.5606 32.8523 18.1364C32.8523 18.7197 32.9394 19.2443 33.1136 19.7102C33.2879 20.1761 33.5455 20.5455 33.8864 20.8182C34.2311 21.0871 34.6553 21.2216 35.1591 21.2216Z" fill="white"/>
<path d="M70.976 22.156C71.6107 22.0813 72.0907 21.8733 72.416 21.532C72.7467 21.1907 72.912 20.7507 72.912 20.212C72.912 19.9827 72.8693 19.7827 72.784 19.612C72.6987 19.4413 72.5813 19.292 72.432 19.164C72.288 19.036 72.1147 18.9267 71.912 18.836C71.7093 18.74 71.4907 18.652 71.256 18.572L70.976 22.156ZM70.584 13.348C70.264 13.38 69.9893 13.4467 69.76 13.548C69.5307 13.644 69.3413 13.764 69.192 13.908C69.0427 14.0467 68.9333 14.204 68.864 14.38C68.7947 14.556 68.76 14.7427 68.76 14.94C68.76 15.164 68.8 15.3613 68.88 15.532C68.96 15.7027 69.0693 15.8547 69.208 15.988C69.352 16.116 69.52 16.2307 69.712 16.332C69.904 16.428 70.112 16.5187 70.336 16.604L70.584 13.348ZM71.384 16.94C71.768 17.0573 72.1467 17.188 72.52 17.332C72.8987 17.4707 73.2373 17.652 73.536 17.876C73.8347 18.0947 74.0747 18.3693 74.256 18.7C74.4427 19.0307 74.536 19.444 74.536 19.94C74.536 20.4253 74.4533 20.884 74.288 21.316C74.128 21.7427 73.8907 22.1213 73.576 22.452C73.2613 22.7773 72.8747 23.044 72.416 23.252C71.9627 23.4547 71.4453 23.5747 70.864 23.612L70.768 24.892C70.7627 25.004 70.7173 25.1053 70.632 25.196C70.5467 25.292 70.4373 25.34 70.304 25.34H69.664L69.8 23.588C69.1707 23.5133 68.584 23.348 68.04 23.092C67.5013 22.8307 67.04 22.5053 66.656 22.116L67.176 21.324C67.224 21.2547 67.2853 21.1987 67.36 21.156C67.44 21.108 67.5253 21.084 67.616 21.084C67.728 21.084 67.848 21.1293 67.976 21.22C68.1093 21.3107 68.264 21.4173 68.44 21.54C68.616 21.6573 68.824 21.7747 69.064 21.892C69.304 22.004 69.5867 22.0867 69.912 22.14L70.208 18.26C69.8347 18.148 69.464 18.0227 69.096 17.884C68.7333 17.74 68.4053 17.5507 68.112 17.316C67.824 17.0813 67.5893 16.788 67.408 16.436C67.232 16.084 67.144 15.6413 67.144 15.108C67.144 14.708 67.2213 14.3187 67.376 13.94C67.536 13.5613 67.7653 13.2253 68.064 12.932C68.368 12.6333 68.7413 12.3907 69.184 12.204C69.6267 12.012 70.1333 11.9027 70.704 11.876L70.784 10.804C70.7893 10.6867 70.8347 10.5827 70.92 10.492C71.0053 10.4013 71.1147 10.356 71.248 10.356H71.888L71.768 11.924C72.328 12.004 72.8133 12.1587 73.224 12.388C73.6347 12.612 73.992 12.8733 74.296 13.172L73.88 13.812C73.7627 13.9987 73.6187 14.092 73.448 14.092C73.368 14.092 73.272 14.0627 73.16 14.004C73.0533 13.9453 72.9253 13.876 72.776 13.796C72.632 13.716 72.4667 13.636 72.28 13.556C72.0933 13.476 71.8853 13.4147 71.656 13.372L71.384 16.94ZM83.1533 21.876C83.3399 21.876 83.4866 21.932 83.5933 22.044C83.6999 22.1507 83.7533 22.2893 83.7533 22.46V23.5H75.9613V22.916C75.9613 22.7987 75.9853 22.676 76.0333 22.548C76.0813 22.42 76.1586 22.3027 76.2653 22.196L79.8493 18.604C80.1533 18.3 80.4226 18.0093 80.6573 17.732C80.8973 17.4547 81.0999 17.1773 81.2653 16.9C81.4359 16.6227 81.5639 16.3427 81.6493 16.06C81.7399 15.772 81.7853 15.4707 81.7853 15.156C81.7853 14.852 81.7373 14.5853 81.6413 14.356C81.5506 14.1213 81.4226 13.9293 81.2573 13.78C81.0973 13.6253 80.9026 13.5107 80.6733 13.436C80.4493 13.356 80.2013 13.316 79.9293 13.316C79.6679 13.316 79.4253 13.3533 79.2013 13.428C78.9826 13.5027 78.7853 13.6067 78.6093 13.74C78.4386 13.8733 78.2946 14.0333 78.1773 14.22C78.0653 14.4013 77.9826 14.6013 77.9293 14.82C77.8493 15.0387 77.7453 15.1853 77.6173 15.26C77.4946 15.3347 77.3133 15.3507 77.0733 15.308L76.1693 15.148C76.2493 14.604 76.3986 14.1267 76.6173 13.716C76.8413 13.3053 77.1213 12.964 77.4573 12.692C77.7933 12.4147 78.1773 12.2067 78.6093 12.068C79.0466 11.924 79.5186 11.852 80.0253 11.852C80.5373 11.852 81.0066 11.9293 81.4333 12.084C81.8653 12.2333 82.2359 12.4493 82.5453 12.732C82.8599 13.0093 83.1053 13.348 83.2812 13.748C83.4572 14.148 83.5452 14.5987 83.5452 15.1C83.5452 15.5267 83.4813 15.9213 83.3533 16.284C83.2306 16.6467 83.0626 16.9933 82.8493 17.324C82.6359 17.6547 82.3853 17.9773 82.0973 18.292C81.8146 18.6013 81.5159 18.916 81.2013 19.236L78.4173 22.084C78.6466 22.02 78.8759 21.9693 79.1053 21.932C79.3399 21.8947 79.5613 21.876 79.7693 21.876H83.1533ZM86.3785 23.492C86.2238 23.492 86.0825 23.4653 85.9545 23.412C85.8265 23.3533 85.7145 23.276 85.6185 23.18C85.5278 23.0787 85.4558 22.9613 85.4025 22.828C85.3545 22.6947 85.3305 22.548 85.3305 22.388C85.3305 22.2493 85.3545 22.1187 85.4025 21.996C85.4558 21.8733 85.5278 21.7667 85.6185 21.676C85.7145 21.5853 85.8265 21.516 85.9545 21.468C86.0878 21.4147 86.2318 21.388 86.3865 21.388C86.5678 21.388 86.7278 21.4227 86.8665 21.492C87.0052 21.556 87.1198 21.6467 87.2105 21.764C87.3065 21.876 87.3758 22.0093 87.4185 22.164C87.4665 22.3133 87.4905 22.4733 87.4905 22.644C87.4905 22.8893 87.4532 23.148 87.3785 23.42C87.3092 23.692 87.2025 23.9613 87.0585 24.228C86.9198 24.5 86.7465 24.764 86.5385 25.02C86.3358 25.276 86.1038 25.5107 85.8425 25.724L85.5465 25.452C85.5038 25.4093 85.4718 25.3693 85.4505 25.332C85.4345 25.2947 85.4265 25.2467 85.4265 25.188C85.4265 25.0973 85.4718 25.012 85.5625 24.932C85.6158 24.8733 85.6852 24.796 85.7705 24.7C85.8558 24.604 85.9412 24.4947 86.0265 24.372C86.1118 24.2493 86.1892 24.1133 86.2585 23.964C86.3332 23.8147 86.3865 23.6573 86.4185 23.492H86.3785ZM97.09 17.74C97.09 18.748 96.9807 19.62 96.762 20.356C96.5487 21.092 96.2527 21.7027 95.874 22.188C95.4953 22.6733 95.05 23.0333 94.538 23.268C94.026 23.5027 93.474 23.62 92.882 23.62C92.29 23.62 91.738 23.5027 91.226 23.268C90.714 23.0333 90.2687 22.6733 89.89 22.188C89.5167 21.7027 89.2233 21.092 89.01 20.356C88.7967 19.62 88.69 18.748 88.69 17.74C88.69 16.732 88.7967 15.86 89.01 15.124C89.2233 14.3827 89.5167 13.772 89.89 13.292C90.2687 12.8067 90.714 12.4467 91.226 12.212C91.738 11.972 92.29 11.852 92.882 11.852C93.474 11.852 94.026 11.972 94.538 12.212C95.05 12.4467 95.4953 12.8067 95.874 13.292C96.2527 13.772 96.5487 14.3827 96.762 15.124C96.9807 15.86 97.09 16.732 97.09 17.74ZM95.314 17.74C95.314 16.8867 95.2447 16.1773 95.106 15.612C94.9727 15.0413 94.794 14.5853 94.57 14.244C94.346 13.9027 94.0873 13.66 93.794 13.516C93.5007 13.372 93.1967 13.3 92.882 13.3C92.562 13.3 92.2553 13.372 91.962 13.516C91.674 13.66 91.418 13.9027 91.194 14.244C90.97 14.5853 90.7913 15.0413 90.658 15.612C90.5247 16.1773 90.458 16.8867 90.458 17.74C90.458 18.5933 90.5247 19.3053 90.658 19.876C90.7913 20.4413 90.97 20.8947 91.194 21.236C91.418 21.5773 91.674 21.82 91.962 21.964C92.2553 22.108 92.562 22.18 92.882 22.18C93.1967 22.18 93.5007 22.108 93.794 21.964C94.0873 21.82 94.346 21.5773 94.57 21.236C94.794 20.8947 94.9727 20.4413 95.106 19.876C95.2447 19.3053 95.314 18.5933 95.314 17.74ZM106.371 17.74C106.371 18.748 106.262 19.62 106.043 20.356C105.83 21.092 105.534 21.7027 105.155 22.188C104.777 22.6733 104.331 23.0333 103.819 23.268C103.307 23.5027 102.755 23.62 102.163 23.62C101.571 23.62 101.019 23.5027 100.507 23.268C99.9953 23.0333 99.5499 22.6733 99.1713 22.188C98.7979 21.7027 98.5046 21.092 98.2913 20.356C98.0779 19.62 97.9713 18.748 97.9713 17.74C97.9713 16.732 98.0779 15.86 98.2913 15.124C98.5046 14.3827 98.7979 13.772 99.1713 13.292C99.5499 12.8067 99.9953 12.4467 100.507 12.212C101.019 11.972 101.571 11.852 102.163 11.852C102.755 11.852 103.307 11.972 103.819 12.212C104.331 12.4467 104.777 12.8067 105.155 13.292C105.534 13.772 105.83 14.3827 106.043 15.124C106.262 15.86 106.371 16.732 106.371 17.74ZM104.595 17.74C104.595 16.8867 104.526 16.1773 104.387 15.612C104.254 15.0413 104.075 14.5853 103.851 14.244C103.627 13.9027 103.369 13.66 103.075 13.516C102.782 13.372 102.478 13.3 102.163 13.3C101.843 13.3 101.537 13.372 101.243 13.516C100.955 13.66 100.699 13.9027 100.475 14.244C100.251 14.5853 100.073 15.0413 99.9393 15.612C99.8059 16.1773 99.7393 16.8867 99.7393 17.74C99.7393 18.5933 99.8059 19.3053 99.9393 19.876C100.073 20.4413 100.251 20.8947 100.475 21.236C100.699 21.5773 100.955 21.82 101.243 21.964C101.537 22.108 101.843 22.18 102.163 22.18C102.478 22.18 102.782 22.108 103.075 21.964C103.369 21.82 103.627 21.5773 103.851 21.236C104.075 20.8947 104.254 20.4413 104.387 19.876C104.526 19.3053 104.595 18.5933 104.595 17.74ZM115.653 17.74C115.653 18.748 115.543 19.62 115.325 20.356C115.111 21.092 114.815 21.7027 114.437 22.188C114.058 22.6733 113.613 23.0333 113.101 23.268C112.589 23.5027 112.037 23.62 111.445 23.62C110.853 23.62 110.301 23.5027 109.789 23.268C109.277 23.0333 108.831 22.6733 108.453 22.188C108.079 21.7027 107.786 21.092 107.573 20.356C107.359 19.62 107.253 18.748 107.253 17.74C107.253 16.732 107.359 15.86 107.573 15.124C107.786 14.3827 108.079 13.772 108.453 13.292C108.831 12.8067 109.277 12.4467 109.789 12.212C110.301 11.972 110.853 11.852 111.445 11.852C112.037 11.852 112.589 11.972 113.101 12.212C113.613 12.4467 114.058 12.8067 114.437 13.292C114.815 13.772 115.111 14.3827 115.325 15.124C115.543 15.86 115.653 16.732 115.653 17.74ZM113.877 17.74C113.877 16.8867 113.807 16.1773 113.669 15.612C113.535 15.0413 113.357 14.5853 113.133 14.244C112.909 13.9027 112.65 13.66 112.357 13.516C112.063 13.372 111.759 13.3 111.445 13.3C111.125 13.3 110.818 13.372 110.525 13.516C110.237 13.66 109.981 13.9027 109.757 14.244C109.533 14.5853 109.354 15.0413 109.221 15.612C109.087 16.1773 109.021 16.8867 109.021 17.74C109.021 18.5933 109.087 19.3053 109.221 19.876C109.354 20.4413 109.533 20.8947 109.757 21.236C109.981 21.5773 110.237 21.82 110.525 21.964C110.818 22.108 111.125 22.18 111.445 22.18C111.759 22.18 112.063 22.108 112.357 21.964C112.65 21.82 112.909 21.5773 113.133 21.236C113.357 20.8947 113.535 20.4413 113.669 19.876C113.807 19.3053 113.877 18.5933 113.877 17.74Z" fill="#143760"/>
<defs>
<linearGradient id="paint0_linear_4137_295" x1="0" y1="0" x2="34.0384" y2="20.9225" gradientUnits="userSpaceOnUse">
<stop stop-color="#1B24F2"/>
<stop offset="1" stop-color="#707DF7"/>
</linearGradient>
</defs>
</svg>
