<svg width="131" height="34" viewBox="0 0 131 34" fill="none" xmlns="http://www.w3.org/2000/svg">
<rect x="0.25" y="0.25" width="130.5" height="33.5" rx="3.75" fill="#E9F4FF"/>
<path d="M0 4C0 1.79086 1.79086 0 4 0H52V34H4C1.79086 34 0 32.2091 0 30V4Z" fill="url(#paint0_linear_109_266)"/>
<path d="M12.1193 22.5V21.2273L16.0568 17.1477C16.4773 16.7045 16.8239 16.3163 17.0966 15.983C17.3731 15.6458 17.5795 15.3258 17.7159 15.0227C17.8523 14.7197 17.9205 14.3977 17.9205 14.0568C17.9205 13.6705 17.8295 13.3371 17.6477 13.0568C17.4659 12.7727 17.2178 12.5549 16.9034 12.4034C16.589 12.2481 16.2348 12.1705 15.8409 12.1705C15.4242 12.1705 15.0606 12.2557 14.75 12.4261C14.4394 12.5966 14.2008 12.8371 14.0341 13.1477C13.8674 13.4583 13.7841 13.822 13.7841 14.2386H12.108C12.108 13.5303 12.2708 12.911 12.5966 12.3807C12.9223 11.8504 13.3693 11.4394 13.9375 11.1477C14.5057 10.8523 15.1515 10.7045 15.875 10.7045C16.6061 10.7045 17.25 10.8504 17.8068 11.142C18.3674 11.4299 18.8049 11.8239 19.1193 12.3239C19.4337 12.8201 19.5909 13.3807 19.5909 14.0057C19.5909 14.4375 19.5095 14.8598 19.3466 15.2727C19.1875 15.6856 18.9091 16.1458 18.5114 16.6534C18.1136 17.1572 17.5606 17.7689 16.8523 18.4886L14.5398 20.9091V20.9943H19.7784V22.5H12.1193ZM23.6534 17.3182V22.5H21.9545V13.7727H23.5852V15.1932H23.6932C23.8939 14.7311 24.2083 14.3598 24.6364 14.0795C25.0682 13.7992 25.6117 13.6591 26.267 13.6591C26.8617 13.6591 27.3826 13.7841 27.8295 14.0341C28.2765 14.2803 28.6231 14.6477 28.8693 15.1364C29.1155 15.625 29.2386 16.2292 29.2386 16.9489V22.5H27.5398V17.1534C27.5398 16.5208 27.375 16.0265 27.0455 15.6705C26.7159 15.3106 26.2633 15.1307 25.6875 15.1307C25.2936 15.1307 24.9432 15.2159 24.6364 15.3864C24.3333 15.5568 24.0928 15.8068 23.9148 16.1364C23.7405 16.4621 23.6534 16.8561 23.6534 17.3182ZM34.7841 22.6705C34.0795 22.6705 33.4508 22.4905 32.8977 22.1307C32.3485 21.767 31.9167 21.25 31.6023 20.5795C31.2917 19.9053 31.1364 19.0966 31.1364 18.1534C31.1364 17.2102 31.2936 16.4034 31.608 15.733C31.9261 15.0625 32.3617 14.5492 32.9148 14.1932C33.4678 13.8371 34.0947 13.6591 34.7955 13.6591C35.3371 13.6591 35.7727 13.75 36.1023 13.9318C36.4356 14.1098 36.6932 14.3182 36.875 14.5568C37.0606 14.7955 37.2045 15.0057 37.3068 15.1875H37.4091V10.8636H39.108V22.5H37.4489V21.142H37.3068C37.2045 21.3277 37.0568 21.5398 36.8636 21.7784C36.6742 22.017 36.4129 22.2254 36.0795 22.4034C35.7462 22.5814 35.3144 22.6705 34.7841 22.6705ZM35.1591 21.2216C35.6477 21.2216 36.0606 21.0928 36.3977 20.8352C36.7386 20.5739 36.9962 20.2121 37.1705 19.75C37.3485 19.2879 37.4375 18.75 37.4375 18.1364C37.4375 17.5303 37.3504 17 37.1761 16.5455C37.0019 16.0909 36.7462 15.7367 36.4091 15.483C36.072 15.2292 35.6553 15.1023 35.1591 15.1023C34.6477 15.1023 34.2216 15.2348 33.8807 15.5C33.5398 15.7652 33.2822 16.1269 33.108 16.5852C32.9375 17.0436 32.8523 17.5606 32.8523 18.1364C32.8523 18.7197 32.9394 19.2443 33.1136 19.7102C33.2879 20.1761 33.5455 20.5455 33.8864 20.8182C34.2311 21.0871 34.6553 21.2216 35.1591 21.2216Z" fill="white"/>
<path d="M70.976 22.156C71.6107 22.0813 72.0907 21.8733 72.416 21.532C72.7467 21.1907 72.912 20.7507 72.912 20.212C72.912 19.9827 72.8693 19.7827 72.784 19.612C72.6987 19.4413 72.5813 19.292 72.432 19.164C72.288 19.036 72.1147 18.9267 71.912 18.836C71.7093 18.74 71.4907 18.652 71.256 18.572L70.976 22.156ZM70.584 13.348C70.264 13.38 69.9893 13.4467 69.76 13.548C69.5307 13.644 69.3413 13.764 69.192 13.908C69.0427 14.0467 68.9333 14.204 68.864 14.38C68.7947 14.556 68.76 14.7427 68.76 14.94C68.76 15.164 68.8 15.3613 68.88 15.532C68.96 15.7027 69.0693 15.8547 69.208 15.988C69.352 16.116 69.52 16.2307 69.712 16.332C69.904 16.428 70.112 16.5187 70.336 16.604L70.584 13.348ZM71.384 16.94C71.768 17.0573 72.1467 17.188 72.52 17.332C72.8987 17.4707 73.2373 17.652 73.536 17.876C73.8347 18.0947 74.0747 18.3693 74.256 18.7C74.4427 19.0307 74.536 19.444 74.536 19.94C74.536 20.4253 74.4533 20.884 74.288 21.316C74.128 21.7427 73.8907 22.1213 73.576 22.452C73.2613 22.7773 72.8747 23.044 72.416 23.252C71.9627 23.4547 71.4453 23.5747 70.864 23.612L70.768 24.892C70.7627 25.004 70.7173 25.1053 70.632 25.196C70.5467 25.292 70.4373 25.34 70.304 25.34H69.664L69.8 23.588C69.1707 23.5133 68.584 23.348 68.04 23.092C67.5013 22.8307 67.04 22.5053 66.656 22.116L67.176 21.324C67.224 21.2547 67.2853 21.1987 67.36 21.156C67.44 21.108 67.5253 21.084 67.616 21.084C67.728 21.084 67.848 21.1293 67.976 21.22C68.1093 21.3107 68.264 21.4173 68.44 21.54C68.616 21.6573 68.824 21.7747 69.064 21.892C69.304 22.004 69.5867 22.0867 69.912 22.14L70.208 18.26C69.8347 18.148 69.464 18.0227 69.096 17.884C68.7333 17.74 68.4053 17.5507 68.112 17.316C67.824 17.0813 67.5893 16.788 67.408 16.436C67.232 16.084 67.144 15.6413 67.144 15.108C67.144 14.708 67.2213 14.3187 67.376 13.94C67.536 13.5613 67.7653 13.2253 68.064 12.932C68.368 12.6333 68.7413 12.3907 69.184 12.204C69.6267 12.012 70.1333 11.9027 70.704 11.876L70.784 10.804C70.7893 10.6867 70.8347 10.5827 70.92 10.492C71.0053 10.4013 71.1147 10.356 71.248 10.356H71.888L71.768 11.924C72.328 12.004 72.8133 12.1587 73.224 12.388C73.6347 12.612 73.992 12.8733 74.296 13.172L73.88 13.812C73.7627 13.9987 73.6187 14.092 73.448 14.092C73.368 14.092 73.272 14.0627 73.16 14.004C73.0533 13.9453 72.9253 13.876 72.776 13.796C72.632 13.716 72.4667 13.636 72.28 13.556C72.0933 13.476 71.8853 13.4147 71.656 13.372L71.384 16.94ZM83.4973 22.196V23.5H77.2173V22.196H79.6173V14.98C79.6173 14.724 79.6253 14.4627 79.6413 14.196L77.7933 15.756C77.7133 15.82 77.6306 15.8627 77.5453 15.884C77.4653 15.9 77.3879 15.9 77.3133 15.884C77.2439 15.868 77.1799 15.844 77.1213 15.812C77.0679 15.7747 77.0253 15.7347 76.9933 15.692L76.4572 14.94L79.9293 11.956H81.3293V22.196H83.4973ZM86.3785 23.492C86.2238 23.492 86.0825 23.4653 85.9545 23.412C85.8265 23.3533 85.7145 23.276 85.6185 23.18C85.5278 23.0787 85.4558 22.9613 85.4025 22.828C85.3545 22.6947 85.3305 22.548 85.3305 22.388C85.3305 22.2493 85.3545 22.1187 85.4025 21.996C85.4558 21.8733 85.5278 21.7667 85.6185 21.676C85.7145 21.5853 85.8265 21.516 85.9545 21.468C86.0878 21.4147 86.2318 21.388 86.3865 21.388C86.5678 21.388 86.7278 21.4227 86.8665 21.492C87.0052 21.556 87.1198 21.6467 87.2105 21.764C87.3065 21.876 87.3758 22.0093 87.4185 22.164C87.4665 22.3133 87.4905 22.4733 87.4905 22.644C87.4905 22.8893 87.4532 23.148 87.3785 23.42C87.3092 23.692 87.2025 23.9613 87.0585 24.228C86.9198 24.5 86.7465 24.764 86.5385 25.02C86.3358 25.276 86.1038 25.5107 85.8425 25.724L85.5465 25.452C85.5038 25.4093 85.4718 25.3693 85.4505 25.332C85.4345 25.2947 85.4265 25.2467 85.4265 25.188C85.4265 25.0973 85.4718 25.012 85.5625 24.932C85.6158 24.8733 85.6852 24.796 85.7705 24.7C85.8558 24.604 85.9412 24.4947 86.0265 24.372C86.1118 24.2493 86.1892 24.1133 86.2585 23.964C86.3332 23.8147 86.3865 23.6573 86.4185 23.492H86.3785ZM91.33 16.236C91.6073 16.1773 91.8713 16.1347 92.122 16.108C92.378 16.0813 92.6233 16.068 92.858 16.068C93.4607 16.068 93.9913 16.1587 94.45 16.34C94.914 16.516 95.3007 16.7613 95.61 17.076C95.9247 17.3907 96.1593 17.7613 96.314 18.188C96.474 18.6093 96.554 19.068 96.554 19.564C96.554 20.1773 96.4473 20.7347 96.234 21.236C96.0207 21.7373 95.7247 22.1667 95.346 22.524C94.9673 22.876 94.5193 23.148 94.002 23.34C93.49 23.532 92.9353 23.628 92.338 23.628C91.986 23.628 91.65 23.5933 91.33 23.524C91.0153 23.4547 90.7193 23.3613 90.442 23.244C90.1647 23.1213 89.9087 22.9827 89.674 22.828C89.4393 22.668 89.2287 22.5027 89.042 22.332L89.57 21.596C89.682 21.436 89.8313 21.356 90.018 21.356C90.1353 21.356 90.2633 21.3987 90.402 21.484C90.5407 21.5693 90.7007 21.6627 90.882 21.764C91.0687 21.86 91.2873 21.9507 91.538 22.036C91.7887 22.1213 92.0873 22.164 92.434 22.164C92.8127 22.164 93.1513 22.1027 93.45 21.98C93.7487 21.8573 93.9993 21.6867 94.202 21.468C94.41 21.244 94.5673 20.9773 94.674 20.668C94.7807 20.3587 94.834 20.02 94.834 19.652C94.834 19.316 94.7833 19.0147 94.682 18.748C94.586 18.4813 94.4393 18.2547 94.242 18.068C94.05 17.8813 93.8073 17.74 93.514 17.644C93.2207 17.5427 92.882 17.492 92.498 17.492C92.2153 17.492 91.9247 17.516 91.626 17.564C91.3327 17.612 91.034 17.6867 90.73 17.788L89.658 17.484L90.602 11.98H96.178V12.724C96.178 12.9693 96.1007 13.1693 95.946 13.324C95.7913 13.4787 95.5327 13.556 95.17 13.556H91.794L91.33 16.236ZM106.371 17.74C106.371 18.748 106.262 19.62 106.043 20.356C105.83 21.092 105.534 21.7027 105.155 22.188C104.777 22.6733 104.331 23.0333 103.819 23.268C103.307 23.5027 102.755 23.62 102.163 23.62C101.571 23.62 101.019 23.5027 100.507 23.268C99.9953 23.0333 99.5499 22.6733 99.1713 22.188C98.7979 21.7027 98.5046 21.092 98.2913 20.356C98.0779 19.62 97.9713 18.748 97.9713 17.74C97.9713 16.732 98.0779 15.86 98.2913 15.124C98.5046 14.3827 98.7979 13.772 99.1713 13.292C99.5499 12.8067 99.9953 12.4467 100.507 12.212C101.019 11.972 101.571 11.852 102.163 11.852C102.755 11.852 103.307 11.972 103.819 12.212C104.331 12.4467 104.777 12.8067 105.155 13.292C105.534 13.772 105.83 14.3827 106.043 15.124C106.262 15.86 106.371 16.732 106.371 17.74ZM104.595 17.74C104.595 16.8867 104.526 16.1773 104.387 15.612C104.254 15.0413 104.075 14.5853 103.851 14.244C103.627 13.9027 103.369 13.66 103.075 13.516C102.782 13.372 102.478 13.3 102.163 13.3C101.843 13.3 101.537 13.372 101.243 13.516C100.955 13.66 100.699 13.9027 100.475 14.244C100.251 14.5853 100.073 15.0413 99.9393 15.612C99.8059 16.1773 99.7393 16.8867 99.7393 17.74C99.7393 18.5933 99.8059 19.3053 99.9393 19.876C100.073 20.4413 100.251 20.8947 100.475 21.236C100.699 21.5773 100.955 21.82 101.243 21.964C101.537 22.108 101.843 22.18 102.163 22.18C102.478 22.18 102.782 22.108 103.075 21.964C103.369 21.82 103.627 21.5773 103.851 21.236C104.075 20.8947 104.254 20.4413 104.387 19.876C104.526 19.3053 104.595 18.5933 104.595 17.74ZM115.653 17.74C115.653 18.748 115.543 19.62 115.325 20.356C115.111 21.092 114.815 21.7027 114.437 22.188C114.058 22.6733 113.613 23.0333 113.101 23.268C112.589 23.5027 112.037 23.62 111.445 23.62C110.853 23.62 110.301 23.5027 109.789 23.268C109.277 23.0333 108.831 22.6733 108.453 22.188C108.079 21.7027 107.786 21.092 107.573 20.356C107.359 19.62 107.253 18.748 107.253 17.74C107.253 16.732 107.359 15.86 107.573 15.124C107.786 14.3827 108.079 13.772 108.453 13.292C108.831 12.8067 109.277 12.4467 109.789 12.212C110.301 11.972 110.853 11.852 111.445 11.852C112.037 11.852 112.589 11.972 113.101 12.212C113.613 12.4467 114.058 12.8067 114.437 13.292C114.815 13.772 115.111 14.3827 115.325 15.124C115.543 15.86 115.653 16.732 115.653 17.74ZM113.877 17.74C113.877 16.8867 113.807 16.1773 113.669 15.612C113.535 15.0413 113.357 14.5853 113.133 14.244C112.909 13.9027 112.65 13.66 112.357 13.516C112.063 13.372 111.759 13.3 111.445 13.3C111.125 13.3 110.818 13.372 110.525 13.516C110.237 13.66 109.981 13.9027 109.757 14.244C109.533 14.5853 109.354 15.0413 109.221 15.612C109.087 16.1773 109.021 16.8867 109.021 17.74C109.021 18.5933 109.087 19.3053 109.221 19.876C109.354 20.4413 109.533 20.8947 109.757 21.236C109.981 21.5773 110.237 21.82 110.525 21.964C110.818 22.108 111.125 22.18 111.445 22.18C111.759 22.18 112.063 22.108 112.357 21.964C112.65 21.82 112.909 21.5773 113.133 21.236C113.357 20.8947 113.535 20.4413 113.669 19.876C113.807 19.3053 113.877 18.5933 113.877 17.74Z" fill="#143760"/>
<rect x="0.25" y="0.25" width="130.5" height="33.5" rx="3.75" stroke="#D0DEEC" stroke-width="0.5"/>
<defs>
<linearGradient id="paint0_linear_109_266" x1="0" y1="0" x2="34.0384" y2="20.9225" gradientUnits="userSpaceOnUse">
<stop stop-color="#1B24F2"/>
<stop offset="1" stop-color="#707DF7"/>
</linearGradient>
</defs>
</svg>
