<svg width="128" height="34" viewBox="0 0 128 34" fill="none" xmlns="http://www.w3.org/2000/svg">
<rect x="0.25" y="0.25" width="127.5" height="33.5" rx="3.75" fill="#FFF1E7"/>
<path d="M0 4C0 1.79086 1.79086 0 4 0H49V34H4C1.79086 34 0 32.2091 0 30V4Z" fill="url(#paint0_linear_109_271)"/>
<path d="M16.1705 22.6591C15.3902 22.6591 14.6932 22.5246 14.0795 22.2557C13.4697 21.9867 12.9867 21.6136 12.6307 21.1364C12.2784 20.6553 12.089 20.0985 12.0625 19.4659H13.8466C13.8693 19.8106 13.9848 20.1098 14.1932 20.3636C14.4053 20.6136 14.6818 20.8068 15.0227 20.9432C15.3636 21.0795 15.7424 21.1477 16.1591 21.1477C16.6174 21.1477 17.0227 21.0682 17.375 20.9091C17.7311 20.75 18.0095 20.5284 18.2102 20.2443C18.411 19.9564 18.5114 19.625 18.5114 19.25C18.5114 18.8598 18.411 18.517 18.2102 18.2216C18.0133 17.9223 17.7235 17.6875 17.3409 17.517C16.9621 17.3466 16.5038 17.2614 15.9659 17.2614H14.983V15.8295H15.9659C16.3977 15.8295 16.7765 15.7519 17.1023 15.5966C17.4318 15.4413 17.6894 15.2254 17.875 14.9489C18.0606 14.6686 18.1534 14.3409 18.1534 13.9659C18.1534 13.6061 18.072 13.2936 17.9091 13.0284C17.75 12.7595 17.5227 12.5492 17.2273 12.3977C16.9356 12.2462 16.5909 12.1705 16.1932 12.1705C15.8144 12.1705 15.4602 12.2405 15.1307 12.3807C14.8049 12.517 14.5398 12.714 14.3352 12.9716C14.1307 13.2254 14.0208 13.5303 14.0057 13.8864H12.3068C12.3258 13.2576 12.5114 12.7045 12.8636 12.2273C13.2197 11.75 13.6894 11.3769 14.2727 11.108C14.8561 10.839 15.5038 10.7045 16.2159 10.7045C16.9621 10.7045 17.6061 10.8504 18.1477 11.142C18.6932 11.4299 19.1136 11.8144 19.4091 12.2955C19.7083 12.7765 19.8561 13.303 19.8523 13.875C19.8561 14.5265 19.6742 15.0795 19.3068 15.5341C18.9432 15.9886 18.4583 16.2936 17.8523 16.4489V16.5398C18.625 16.6572 19.2235 16.964 19.6477 17.4602C20.0758 17.9564 20.2879 18.572 20.2841 19.3068C20.2879 19.947 20.1098 20.5208 19.75 21.0284C19.3939 21.536 18.9072 21.9356 18.2898 22.2273C17.6723 22.5152 16.9659 22.6591 16.1705 22.6591ZM22.4545 22.5V13.7727H24.0966V15.1591H24.1875C24.3466 14.6894 24.6269 14.3201 25.0284 14.0511C25.4337 13.7784 25.892 13.642 26.4034 13.642C26.5095 13.642 26.6345 13.6458 26.7784 13.6534C26.9261 13.661 27.0417 13.6705 27.125 13.6818V15.3068C27.0568 15.2879 26.9356 15.267 26.7614 15.2443C26.5871 15.2178 26.4129 15.2045 26.2386 15.2045C25.8371 15.2045 25.4792 15.2898 25.1648 15.4602C24.8542 15.6269 24.608 15.8598 24.4261 16.1591C24.2443 16.4545 24.1534 16.7917 24.1534 17.1705V22.5H22.4545ZM31.5497 22.6705C30.8452 22.6705 30.2164 22.4905 29.6634 22.1307C29.1141 21.767 28.6823 21.25 28.3679 20.5795C28.0573 19.9053 27.902 19.0966 27.902 18.1534C27.902 17.2102 28.0592 16.4034 28.3736 15.733C28.6918 15.0625 29.1274 14.5492 29.6804 14.1932C30.2334 13.8371 30.8603 13.6591 31.5611 13.6591C32.1027 13.6591 32.5384 13.75 32.8679 13.9318C33.2012 14.1098 33.4588 14.3182 33.6406 14.5568C33.8262 14.7955 33.9702 15.0057 34.0724 15.1875H34.1747V10.8636H35.8736V22.5H34.2145V21.142H34.0724C33.9702 21.3277 33.8224 21.5398 33.6293 21.7784C33.4399 22.017 33.1785 22.2254 32.8452 22.4034C32.5118 22.5814 32.08 22.6705 31.5497 22.6705ZM31.9247 21.2216C32.4134 21.2216 32.8262 21.0928 33.1634 20.8352C33.5043 20.5739 33.7618 20.2121 33.9361 19.75C34.1141 19.2879 34.2031 18.75 34.2031 18.1364C34.2031 17.5303 34.116 17 33.9418 16.5455C33.7675 16.0909 33.5118 15.7367 33.1747 15.483C32.8376 15.2292 32.4209 15.1023 31.9247 15.1023C31.4134 15.1023 30.9872 15.2348 30.6463 15.5C30.3054 15.7652 30.0478 16.1269 29.8736 16.5852C29.7031 17.0436 29.6179 17.5606 29.6179 18.1364C29.6179 18.7197 29.705 19.2443 29.8793 19.7102C30.0535 20.1761 30.3111 20.5455 30.652 20.8182C30.9967 21.0871 31.4209 21.2216 31.9247 21.2216Z" fill="white"/>
<path d="M67.976 22.156C68.6107 22.0813 69.0907 21.8733 69.416 21.532C69.7467 21.1907 69.912 20.7507 69.912 20.212C69.912 19.9827 69.8693 19.7827 69.784 19.612C69.6987 19.4413 69.5813 19.292 69.432 19.164C69.288 19.036 69.1147 18.9267 68.912 18.836C68.7093 18.74 68.4907 18.652 68.256 18.572L67.976 22.156ZM67.584 13.348C67.264 13.38 66.9893 13.4467 66.76 13.548C66.5307 13.644 66.3413 13.764 66.192 13.908C66.0427 14.0467 65.9333 14.204 65.864 14.38C65.7947 14.556 65.76 14.7427 65.76 14.94C65.76 15.164 65.8 15.3613 65.88 15.532C65.96 15.7027 66.0693 15.8547 66.208 15.988C66.352 16.116 66.52 16.2307 66.712 16.332C66.904 16.428 67.112 16.5187 67.336 16.604L67.584 13.348ZM68.384 16.94C68.768 17.0573 69.1467 17.188 69.52 17.332C69.8987 17.4707 70.2373 17.652 70.536 17.876C70.8347 18.0947 71.0747 18.3693 71.256 18.7C71.4427 19.0307 71.536 19.444 71.536 19.94C71.536 20.4253 71.4533 20.884 71.288 21.316C71.128 21.7427 70.8907 22.1213 70.576 22.452C70.2613 22.7773 69.8747 23.044 69.416 23.252C68.9627 23.4547 68.4453 23.5747 67.864 23.612L67.768 24.892C67.7627 25.004 67.7173 25.1053 67.632 25.196C67.5467 25.292 67.4373 25.34 67.304 25.34H66.664L66.8 23.588C66.1707 23.5133 65.584 23.348 65.04 23.092C64.5013 22.8307 64.04 22.5053 63.656 22.116L64.176 21.324C64.224 21.2547 64.2853 21.1987 64.36 21.156C64.44 21.108 64.5253 21.084 64.616 21.084C64.728 21.084 64.848 21.1293 64.976 21.22C65.1093 21.3107 65.264 21.4173 65.44 21.54C65.616 21.6573 65.824 21.7747 66.064 21.892C66.304 22.004 66.5867 22.0867 66.912 22.14L67.208 18.26C66.8347 18.148 66.464 18.0227 66.096 17.884C65.7333 17.74 65.4053 17.5507 65.112 17.316C64.824 17.0813 64.5893 16.788 64.408 16.436C64.232 16.084 64.144 15.6413 64.144 15.108C64.144 14.708 64.2213 14.3187 64.376 13.94C64.536 13.5613 64.7653 13.2253 65.064 12.932C65.368 12.6333 65.7413 12.3907 66.184 12.204C66.6267 12.012 67.1333 11.9027 67.704 11.876L67.784 10.804C67.7893 10.6867 67.8347 10.5827 67.92 10.492C68.0053 10.4013 68.1147 10.356 68.248 10.356H68.888L68.768 11.924C69.328 12.004 69.8133 12.1587 70.224 12.388C70.6347 12.612 70.992 12.8733 71.296 13.172L70.88 13.812C70.7627 13.9987 70.6187 14.092 70.448 14.092C70.368 14.092 70.272 14.0627 70.16 14.004C70.0533 13.9453 69.9253 13.876 69.776 13.796C69.632 13.716 69.4667 13.636 69.28 13.556C69.0933 13.476 68.8853 13.4147 68.656 13.372L68.384 16.94ZM80.4973 22.196V23.5H74.2173V22.196H76.6173V14.98C76.6173 14.724 76.6253 14.4627 76.6413 14.196L74.7933 15.756C74.7133 15.82 74.6306 15.8627 74.5453 15.884C74.4653 15.9 74.3879 15.9 74.3133 15.884C74.2439 15.868 74.1799 15.844 74.1213 15.812C74.0679 15.7747 74.0253 15.7347 73.9933 15.692L73.4572 14.94L76.9293 11.956H78.3293V22.196H80.4973ZM83.3785 23.492C83.2238 23.492 83.0825 23.4653 82.9545 23.412C82.8265 23.3533 82.7145 23.276 82.6185 23.18C82.5278 23.0787 82.4558 22.9613 82.4025 22.828C82.3545 22.6947 82.3305 22.548 82.3305 22.388C82.3305 22.2493 82.3545 22.1187 82.4025 21.996C82.4558 21.8733 82.5278 21.7667 82.6185 21.676C82.7145 21.5853 82.8265 21.516 82.9545 21.468C83.0878 21.4147 83.2318 21.388 83.3865 21.388C83.5678 21.388 83.7278 21.4227 83.8665 21.492C84.0052 21.556 84.1198 21.6467 84.2105 21.764C84.3065 21.876 84.3758 22.0093 84.4185 22.164C84.4665 22.3133 84.4905 22.4733 84.4905 22.644C84.4905 22.8893 84.4532 23.148 84.3785 23.42C84.3092 23.692 84.2025 23.9613 84.0585 24.228C83.9198 24.5 83.7465 24.764 83.5385 25.02C83.3358 25.276 83.1038 25.5107 82.8425 25.724L82.5465 25.452C82.5038 25.4093 82.4718 25.3693 82.4505 25.332C82.4345 25.2947 82.4265 25.2467 82.4265 25.188C82.4265 25.0973 82.4718 25.012 82.5625 24.932C82.6158 24.8733 82.6852 24.796 82.7705 24.7C82.8558 24.604 82.9412 24.4947 83.0265 24.372C83.1118 24.2493 83.1892 24.1133 83.2585 23.964C83.3332 23.8147 83.3865 23.6573 83.4185 23.492H83.3785ZM94.09 17.74C94.09 18.748 93.9807 19.62 93.762 20.356C93.5487 21.092 93.2527 21.7027 92.874 22.188C92.4953 22.6733 92.05 23.0333 91.538 23.268C91.026 23.5027 90.474 23.62 89.882 23.62C89.29 23.62 88.738 23.5027 88.226 23.268C87.714 23.0333 87.2687 22.6733 86.89 22.188C86.5167 21.7027 86.2233 21.092 86.01 20.356C85.7967 19.62 85.69 18.748 85.69 17.74C85.69 16.732 85.7967 15.86 86.01 15.124C86.2233 14.3827 86.5167 13.772 86.89 13.292C87.2687 12.8067 87.714 12.4467 88.226 12.212C88.738 11.972 89.29 11.852 89.882 11.852C90.474 11.852 91.026 11.972 91.538 12.212C92.05 12.4467 92.4953 12.8067 92.874 13.292C93.2527 13.772 93.5487 14.3827 93.762 15.124C93.9807 15.86 94.09 16.732 94.09 17.74ZM92.314 17.74C92.314 16.8867 92.2447 16.1773 92.106 15.612C91.9727 15.0413 91.794 14.5853 91.57 14.244C91.346 13.9027 91.0873 13.66 90.794 13.516C90.5007 13.372 90.1967 13.3 89.882 13.3C89.562 13.3 89.2553 13.372 88.962 13.516C88.674 13.66 88.418 13.9027 88.194 14.244C87.97 14.5853 87.7913 15.0413 87.658 15.612C87.5247 16.1773 87.458 16.8867 87.458 17.74C87.458 18.5933 87.5247 19.3053 87.658 19.876C87.7913 20.4413 87.97 20.8947 88.194 21.236C88.418 21.5773 88.674 21.82 88.962 21.964C89.2553 22.108 89.562 22.18 89.882 22.18C90.1967 22.18 90.5007 22.108 90.794 21.964C91.0873 21.82 91.346 21.5773 91.57 21.236C91.794 20.8947 91.9727 20.4413 92.106 19.876C92.2447 19.3053 92.314 18.5933 92.314 17.74ZM103.371 17.74C103.371 18.748 103.262 19.62 103.043 20.356C102.83 21.092 102.534 21.7027 102.155 22.188C101.777 22.6733 101.331 23.0333 100.819 23.268C100.307 23.5027 99.7553 23.62 99.1633 23.62C98.5713 23.62 98.0193 23.5027 97.5073 23.268C96.9953 23.0333 96.5499 22.6733 96.1713 22.188C95.7979 21.7027 95.5046 21.092 95.2913 20.356C95.0779 19.62 94.9713 18.748 94.9713 17.74C94.9713 16.732 95.0779 15.86 95.2913 15.124C95.5046 14.3827 95.7979 13.772 96.1713 13.292C96.5499 12.8067 96.9953 12.4467 97.5073 12.212C98.0193 11.972 98.5713 11.852 99.1633 11.852C99.7553 11.852 100.307 11.972 100.819 12.212C101.331 12.4467 101.777 12.8067 102.155 13.292C102.534 13.772 102.83 14.3827 103.043 15.124C103.262 15.86 103.371 16.732 103.371 17.74ZM101.595 17.74C101.595 16.8867 101.526 16.1773 101.387 15.612C101.254 15.0413 101.075 14.5853 100.851 14.244C100.627 13.9027 100.369 13.66 100.075 13.516C99.7819 13.372 99.4779 13.3 99.1633 13.3C98.8433 13.3 98.5366 13.372 98.2433 13.516C97.9553 13.66 97.6993 13.9027 97.4753 14.244C97.2513 14.5853 97.0726 15.0413 96.9393 15.612C96.8059 16.1773 96.7393 16.8867 96.7393 17.74C96.7393 18.5933 96.8059 19.3053 96.9393 19.876C97.0726 20.4413 97.2513 20.8947 97.4753 21.236C97.6993 21.5773 97.9553 21.82 98.2433 21.964C98.5366 22.108 98.8433 22.18 99.1633 22.18C99.4779 22.18 99.7819 22.108 100.075 21.964C100.369 21.82 100.627 21.5773 100.851 21.236C101.075 20.8947 101.254 20.4413 101.387 19.876C101.526 19.3053 101.595 18.5933 101.595 17.74ZM112.653 17.74C112.653 18.748 112.543 19.62 112.325 20.356C112.111 21.092 111.815 21.7027 111.437 22.188C111.058 22.6733 110.613 23.0333 110.101 23.268C109.589 23.5027 109.037 23.62 108.445 23.62C107.853 23.62 107.301 23.5027 106.789 23.268C106.277 23.0333 105.831 22.6733 105.453 22.188C105.079 21.7027 104.786 21.092 104.573 20.356C104.359 19.62 104.253 18.748 104.253 17.74C104.253 16.732 104.359 15.86 104.573 15.124C104.786 14.3827 105.079 13.772 105.453 13.292C105.831 12.8067 106.277 12.4467 106.789 12.212C107.301 11.972 107.853 11.852 108.445 11.852C109.037 11.852 109.589 11.972 110.101 12.212C110.613 12.4467 111.058 12.8067 111.437 13.292C111.815 13.772 112.111 14.3827 112.325 15.124C112.543 15.86 112.653 16.732 112.653 17.74ZM110.877 17.74C110.877 16.8867 110.807 16.1773 110.669 15.612C110.535 15.0413 110.357 14.5853 110.133 14.244C109.909 13.9027 109.65 13.66 109.357 13.516C109.063 13.372 108.759 13.3 108.445 13.3C108.125 13.3 107.818 13.372 107.525 13.516C107.237 13.66 106.981 13.9027 106.757 14.244C106.533 14.5853 106.354 15.0413 106.221 15.612C106.087 16.1773 106.021 16.8867 106.021 17.74C106.021 18.5933 106.087 19.3053 106.221 19.876C106.354 20.4413 106.533 20.8947 106.757 21.236C106.981 21.5773 107.237 21.82 107.525 21.964C107.818 22.108 108.125 22.18 108.445 22.18C108.759 22.18 109.063 22.108 109.357 21.964C109.65 21.82 109.909 21.5773 110.133 21.236C110.357 20.8947 110.535 20.4413 110.669 19.876C110.807 19.3053 110.877 18.5933 110.877 17.74Z" fill="#603D14"/>
<rect x="0.25" y="0.25" width="127.5" height="33.5" rx="3.75" stroke="#ECDBCE" stroke-width="0.5"/>
<defs>
<linearGradient id="paint0_linear_109_271" x1="0" y1="0" x2="33.0915" y2="19.167" gradientUnits="userSpaceOnUse">
<stop stop-color="#EA6D27"/>
<stop offset="1" stop-color="#F09D20"/>
</linearGradient>
</defs>
</svg>
