<svg width="264" height="59" viewBox="0 0 264 59" fill="none" xmlns="http://www.w3.org/2000/svg">
<path d="M18.94 42.8C22.24 42.26 23.89 40.45 23.89 37.37C23.89 36.21 23.52 35.3 22.78 34.64C22.06 33.96 21.1 33.39 19.9 32.93L18.94 42.8ZM16.15 13.58C15.23 13.72 14.45 13.93 13.81 14.21C13.19 14.49 12.68 14.82 12.28 15.2C11.9 15.58 11.62 16.01 11.44 16.49C11.26 16.95 11.17 17.44 11.17 17.96C11.17 19.14 11.55 20.1 12.31 20.84C13.07 21.56 14.05 22.17 15.25 22.67L16.15 13.58ZM20.74 24.47C21.7 24.75 22.66 25.06 23.62 25.4C24.58 25.72 25.5 26.1 26.38 26.54C27.28 26.96 28.11 27.45 28.87 28.01C29.65 28.57 30.32 29.23 30.88 29.99C31.46 30.75 31.91 31.62 32.23 32.6C32.55 33.58 32.71 34.71 32.71 35.99C32.71 37.89 32.39 39.68 31.75 41.36C31.11 43.02 30.17 44.5 28.93 45.8C27.69 47.08 26.17 48.13 24.37 48.95C22.57 49.75 20.51 50.24 18.19 50.42L17.83 54.14C17.79 54.7 17.54 55.2 17.08 55.64C16.64 56.1 16.07 56.33 15.37 56.33H11.95L12.55 50.15C10.25 49.77 8.05 49.11 5.95 48.17C3.87 47.21 2.11 46.06 0.67 44.72L3.55 40.55C3.79 40.21 4.11 39.93 4.51 39.71C4.93 39.47 5.37 39.35 5.83 39.35C6.31 39.35 6.8 39.48 7.3 39.74C7.8 39.98 8.34 40.28 8.92 40.64C9.52 40.98 10.17 41.34 10.87 41.72C11.59 42.08 12.4 42.38 13.3 42.62L14.41 31.31C12.97 30.91 11.53 30.44 10.09 29.9C8.67 29.36 7.39 28.63 6.25 27.71C5.11 26.79 4.18 25.62 3.46 24.2C2.76 22.78 2.41 21 2.41 18.86C2.41 17.28 2.73 15.74 3.37 14.24C4.01 12.74 4.94 11.39 6.16 10.19C7.4 8.99 8.92 8.01 10.72 7.25C12.52 6.47 14.58 6.02 16.9 5.9L17.23 2.57C17.27 2.01 17.51 1.51 17.95 1.07C18.41 0.609999 18.99 0.379999 19.69 0.379999H23.11L22.54 6.26C24.7 6.66 26.55 7.31 28.09 8.21C29.65 9.11 30.97 10.07 32.05 11.09L29.77 14.42C29.43 14.92 29.08 15.29 28.72 15.53C28.38 15.75 27.97 15.86 27.49 15.86C27.19 15.86 26.83 15.79 26.41 15.65C26.01 15.49 25.57 15.31 25.09 15.11C24.61 14.89 24.09 14.67 23.53 14.45C22.99 14.21 22.41 14 21.79 13.82L20.74 24.47ZM64.7847 41.6C65.7847 41.6 66.5747 41.88 67.1547 42.44C67.7347 42.98 68.0247 43.7 68.0247 44.6V50H37.3047V47C37.3047 46.42 37.4247 45.8 37.6647 45.14C37.9047 44.48 38.3247 43.88 38.9247 43.34L51.5247 30.65C52.6047 29.57 53.5447 28.54 54.3447 27.56C55.1447 26.58 55.8047 25.62 56.3247 24.68C56.8447 23.72 57.2347 22.77 57.4947 21.83C57.7547 20.87 57.8847 19.86 57.8847 18.8C57.8847 17.06 57.4647 15.73 56.6247 14.81C55.8047 13.87 54.5447 13.4 52.8447 13.4C51.4647 13.4 50.2947 13.77 49.3347 14.51C48.3947 15.23 47.7447 16.13 47.3847 17.21C46.9647 18.31 46.4147 19.04 45.7347 19.4C45.0547 19.76 44.0847 19.84 42.8247 19.64L37.9047 18.77C38.2247 16.59 38.8347 14.69 39.7347 13.07C40.6547 11.45 41.7847 10.1 43.1247 9.02C44.4847 7.94 46.0347 7.14 47.7747 6.62C49.5147 6.08 51.3847 5.81 53.3847 5.81C55.5447 5.81 57.4847 6.13 59.2047 6.77C60.9447 7.39 62.4247 8.26 63.6447 9.38C64.8647 10.5 65.7947 11.84 66.4347 13.4C67.0947 14.94 67.4247 16.64 67.4247 18.5C67.4247 20.1 67.1947 21.58 66.7347 22.94C66.2947 24.3 65.6847 25.6 64.9047 26.84C64.1247 28.06 63.2147 29.25 62.1747 30.41C61.1547 31.55 60.0647 32.71 58.9047 33.89L50.3547 42.65C51.4547 42.31 52.5447 42.05 53.6247 41.87C54.7047 41.69 55.7047 41.6 56.6247 41.6H64.7847ZM105.109 28.13C105.109 31.95 104.699 35.26 103.879 38.06C103.059 40.86 101.919 43.18 100.459 45.02C99.0194 46.86 97.2994 48.23 95.2994 49.13C93.3194 50.03 91.1694 50.48 88.8494 50.48C86.5294 50.48 84.3794 50.03 82.3994 49.13C80.4394 48.23 78.7394 46.86 77.2994 45.02C75.8594 43.18 74.7294 40.86 73.9094 38.06C73.1094 35.26 72.7094 31.95 72.7094 28.13C72.7094 24.31 73.1094 21 73.9094 18.2C74.7294 15.4 75.8594 13.08 77.2994 11.24C78.7394 9.4 80.4394 8.04 82.3994 7.16C84.3794 6.26 86.5294 5.81 88.8494 5.81C91.1694 5.81 93.3194 6.26 95.2994 7.16C97.2994 8.04 99.0194 9.4 100.459 11.24C101.919 13.08 103.059 15.4 103.879 18.2C104.699 21 105.109 24.31 105.109 28.13ZM95.5094 28.13C95.5094 25.11 95.3194 22.64 94.9394 20.72C94.5594 18.78 94.0494 17.26 93.4094 16.16C92.7894 15.06 92.0794 14.31 91.2794 13.91C90.4794 13.49 89.6694 13.28 88.8494 13.28C88.0294 13.28 87.2194 13.49 86.4194 13.91C85.6394 14.31 84.9394 15.06 84.3194 16.16C83.7194 17.26 83.2294 18.78 82.8494 20.72C82.4894 22.64 82.3094 25.11 82.3094 28.13C82.3094 31.17 82.4894 33.65 82.8494 35.57C83.2294 37.49 83.7194 39.01 84.3194 40.13C84.9394 41.23 85.6394 41.99 86.4194 42.41C87.2194 42.81 88.0294 43.01 88.8494 43.01C89.6694 43.01 90.4794 42.81 91.2794 42.41C92.0794 41.99 92.7894 41.23 93.4094 40.13C94.0494 39.01 94.5594 37.49 94.9394 35.57C95.3194 33.65 95.5094 31.17 95.5094 28.13ZM110.724 57.41C110.284 57.05 110.064 56.61 110.064 56.09C110.064 55.89 110.134 55.67 110.274 55.43C110.414 55.21 110.584 55.01 110.784 54.83C111.024 54.59 111.304 54.29 111.624 53.93C111.944 53.59 112.264 53.21 112.584 52.79C112.904 52.37 113.194 51.91 113.454 51.41C113.734 50.91 113.944 50.38 114.084 49.82C113.404 49.76 112.784 49.59 112.224 49.31C111.664 49.03 111.184 48.67 110.784 48.23C110.384 47.77 110.074 47.25 109.854 46.67C109.634 46.07 109.524 45.42 109.524 44.72C109.524 44.08 109.644 43.49 109.884 42.95C110.124 42.39 110.464 41.91 110.904 41.51C111.364 41.09 111.894 40.76 112.494 40.52C113.114 40.28 113.804 40.16 114.564 40.16C115.464 40.16 116.244 40.32 116.904 40.64C117.564 40.94 118.114 41.36 118.554 41.9C118.994 42.42 119.314 43.03 119.514 43.73C119.734 44.41 119.844 45.13 119.844 45.89C119.844 46.89 119.684 47.96 119.364 49.1C119.044 50.22 118.564 51.35 117.924 52.49C117.304 53.63 116.524 54.75 115.584 55.85C114.644 56.95 113.564 57.95 112.344 58.85L110.724 57.41ZM156.728 28.13C156.728 31.95 156.318 35.26 155.498 38.06C154.678 40.86 153.538 43.18 152.078 45.02C150.638 46.86 148.918 48.23 146.918 49.13C144.938 50.03 142.788 50.48 140.468 50.48C138.148 50.48 135.998 50.03 134.018 49.13C132.058 48.23 130.358 46.86 128.918 45.02C127.478 43.18 126.348 40.86 125.528 38.06C124.728 35.26 124.328 31.95 124.328 28.13C124.328 24.31 124.728 21 125.528 18.2C126.348 15.4 127.478 13.08 128.918 11.24C130.358 9.4 132.058 8.04 134.018 7.16C135.998 6.26 138.148 5.81 140.468 5.81C142.788 5.81 144.938 6.26 146.918 7.16C148.918 8.04 150.638 9.4 152.078 11.24C153.538 13.08 154.678 15.4 155.498 18.2C156.318 21 156.728 24.31 156.728 28.13ZM147.128 28.13C147.128 25.11 146.938 22.64 146.558 20.72C146.178 18.78 145.668 17.26 145.028 16.16C144.408 15.06 143.698 14.31 142.898 13.91C142.098 13.49 141.288 13.28 140.468 13.28C139.648 13.28 138.838 13.49 138.038 13.91C137.258 14.31 136.558 15.06 135.938 16.16C135.338 17.26 134.848 18.78 134.468 20.72C134.108 22.64 133.928 25.11 133.928 28.13C133.928 31.17 134.108 33.65 134.468 35.57C134.848 37.49 135.338 39.01 135.938 40.13C136.558 41.23 137.258 41.99 138.038 42.41C138.838 42.81 139.648 43.01 140.468 43.01C141.288 43.01 142.098 42.81 142.898 42.41C143.698 41.99 144.408 41.23 145.028 40.13C145.668 39.01 146.178 37.49 146.558 35.57C146.938 33.65 147.128 31.17 147.128 28.13ZM192.733 28.13C192.733 31.95 192.323 35.26 191.503 38.06C190.683 40.86 189.543 43.18 188.083 45.02C186.643 46.86 184.923 48.23 182.923 49.13C180.943 50.03 178.793 50.48 176.473 50.48C174.153 50.48 172.003 50.03 170.023 49.13C168.063 48.23 166.363 46.86 164.923 45.02C163.483 43.18 162.353 40.86 161.533 38.06C160.733 35.26 160.333 31.95 160.333 28.13C160.333 24.31 160.733 21 161.533 18.2C162.353 15.4 163.483 13.08 164.923 11.24C166.363 9.4 168.063 8.04 170.023 7.16C172.003 6.26 174.153 5.81 176.473 5.81C178.793 5.81 180.943 6.26 182.923 7.16C184.923 8.04 186.643 9.4 188.083 11.24C189.543 13.08 190.683 15.4 191.503 18.2C192.323 21 192.733 24.31 192.733 28.13ZM183.133 28.13C183.133 25.11 182.943 22.64 182.563 20.72C182.183 18.78 181.673 17.26 181.033 16.16C180.413 15.06 179.703 14.31 178.903 13.91C178.103 13.49 177.293 13.28 176.473 13.28C175.653 13.28 174.843 13.49 174.043 13.91C173.263 14.31 172.563 15.06 171.943 16.16C171.343 17.26 170.853 18.78 170.473 20.72C170.113 22.64 169.933 25.11 169.933 28.13C169.933 31.17 170.113 33.65 170.473 35.57C170.853 37.49 171.343 39.01 171.943 40.13C172.563 41.23 173.263 41.99 174.043 42.41C174.843 42.81 175.653 43.01 176.473 43.01C177.293 43.01 178.103 42.81 178.903 42.41C179.703 41.99 180.413 41.23 181.033 40.13C181.673 39.01 182.183 37.49 182.563 35.57C182.943 33.65 183.133 31.17 183.133 28.13ZM228.737 28.13C228.737 31.95 228.327 35.26 227.507 38.06C226.687 40.86 225.547 43.18 224.087 45.02C222.647 46.86 220.927 48.23 218.927 49.13C216.947 50.03 214.797 50.48 212.477 50.48C210.157 50.48 208.007 50.03 206.027 49.13C204.067 48.23 202.367 46.86 200.927 45.02C199.487 43.18 198.357 40.86 197.537 38.06C196.737 35.26 196.337 31.95 196.337 28.13C196.337 24.31 196.737 21 197.537 18.2C198.357 15.4 199.487 13.08 200.927 11.24C202.367 9.4 204.067 8.04 206.027 7.16C208.007 6.26 210.157 5.81 212.477 5.81C214.797 5.81 216.947 6.26 218.927 7.16C220.927 8.04 222.647 9.4 224.087 11.24C225.547 13.08 226.687 15.4 227.507 18.2C228.327 21 228.737 24.31 228.737 28.13ZM219.137 28.13C219.137 25.11 218.947 22.64 218.567 20.72C218.187 18.78 217.677 17.26 217.037 16.16C216.417 15.06 215.707 14.31 214.907 13.91C214.107 13.49 213.297 13.28 212.477 13.28C211.657 13.28 210.847 13.49 210.047 13.91C209.267 14.31 208.567 15.06 207.947 16.16C207.347 17.26 206.857 18.78 206.477 20.72C206.117 22.64 205.937 25.11 205.937 28.13C205.937 31.17 206.117 33.65 206.477 35.57C206.857 37.49 207.347 39.01 207.947 40.13C208.567 41.23 209.267 41.99 210.047 42.41C210.847 42.81 211.657 43.01 212.477 43.01C213.297 43.01 214.107 42.81 214.907 42.41C215.707 41.99 216.417 41.23 217.037 40.13C217.677 39.01 218.187 37.49 218.567 35.57C218.947 33.65 219.137 31.17 219.137 28.13ZM263.392 33.17H252.292V45.11H244.732V33.17H233.692V26.51H244.732V14.63H252.292V26.51H263.392V33.17Z" fill="url(#paint0_linear_3483_842)"/>
<defs>
<linearGradient id="paint0_linear_3483_842" x1="-1.34307e-06" y1="27" x2="83.8536" y2="120.212" gradientUnits="userSpaceOnUse">
<stop offset="0.0145793" stop-color="#30328B"/>
<stop offset="1" stop-color="#FFC54A"/>
</linearGradient>
</defs>
</svg>
