<svg width="264" height="59" viewBox="0 0 264 59" fill="none" xmlns="http://www.w3.org/2000/svg">
<path d="M18.94 42.8C22.24 42.26 23.89 40.45 23.89 37.37C23.89 36.21 23.52 35.3 22.78 34.64C22.06 33.96 21.1 33.39 19.9 32.93L18.94 42.8ZM16.15 13.58C15.23 13.72 14.45 13.93 13.81 14.21C13.19 14.49 12.68 14.82 12.28 15.2C11.9 15.58 11.62 16.01 11.44 16.49C11.26 16.95 11.17 17.44 11.17 17.96C11.17 19.14 11.55 20.1 12.31 20.84C13.07 21.56 14.05 22.17 15.25 22.67L16.15 13.58ZM20.74 24.47C21.7 24.75 22.66 25.06 23.62 25.4C24.58 25.72 25.5 26.1 26.38 26.54C27.28 26.96 28.11 27.45 28.87 28.01C29.65 28.57 30.32 29.23 30.88 29.99C31.46 30.75 31.91 31.62 32.23 32.6C32.55 33.58 32.71 34.71 32.71 35.99C32.71 37.89 32.39 39.68 31.75 41.36C31.11 43.02 30.17 44.5 28.93 45.8C27.69 47.08 26.17 48.13 24.37 48.95C22.57 49.75 20.51 50.24 18.19 50.42L17.83 54.14C17.79 54.7 17.54 55.2 17.08 55.64C16.64 56.1 16.07 56.33 15.37 56.33H11.95L12.55 50.15C10.25 49.77 8.05 49.11 5.95 48.17C3.87 47.21 2.11 46.06 0.67 44.72L3.55 40.55C3.79 40.21 4.11 39.93 4.51 39.71C4.93 39.47 5.37 39.35 5.83 39.35C6.31 39.35 6.8 39.48 7.3 39.74C7.8 39.98 8.34 40.28 8.92 40.64C9.52 40.98 10.17 41.34 10.87 41.72C11.59 42.08 12.4 42.38 13.3 42.62L14.41 31.31C12.97 30.91 11.53 30.44 10.09 29.9C8.67 29.36 7.39 28.63 6.25 27.71C5.11 26.79 4.18 25.62 3.46 24.2C2.76 22.78 2.41 21 2.41 18.86C2.41 17.28 2.73 15.74 3.37 14.24C4.01 12.74 4.94 11.39 6.16 10.19C7.4 8.99 8.92 8.01 10.72 7.25C12.52 6.47 14.58 6.02 16.9 5.9L17.23 2.57C17.27 2.01 17.51 1.51 17.95 1.07C18.41 0.609999 18.99 0.379999 19.69 0.379999H23.11L22.54 6.26C24.7 6.66 26.55 7.31 28.09 8.21C29.65 9.11 30.97 10.07 32.05 11.09L29.77 14.42C29.43 14.92 29.08 15.29 28.72 15.53C28.38 15.75 27.97 15.86 27.49 15.86C27.19 15.86 26.83 15.79 26.41 15.65C26.01 15.49 25.57 15.31 25.09 15.11C24.61 14.89 24.09 14.67 23.53 14.45C22.99 14.21 22.41 14 21.79 13.82L20.74 24.47ZM67.0347 43.28V50H42.1347V43.28H50.5347V21.23C50.5347 20.67 50.5447 20.11 50.5647 19.55C50.5847 18.97 50.6147 18.39 50.6547 17.81L45.6747 21.95C45.2347 22.29 44.7947 22.5 44.3547 22.58C43.9347 22.64 43.5347 22.64 43.1547 22.58C42.7747 22.5 42.4347 22.37 42.1347 22.19C41.8347 21.99 41.6147 21.79 41.4747 21.59L38.5347 17.69L52.1547 6.26H59.8347V43.28H67.0347ZM84.8294 21.68C85.6494 21.52 86.4394 21.41 87.1994 21.35C87.9594 21.29 88.6994 21.26 89.4194 21.26C91.7194 21.26 93.7494 21.61 95.5094 22.31C97.2694 23.01 98.7494 23.97 99.9494 25.19C101.149 26.39 102.049 27.81 102.649 29.45C103.269 31.07 103.579 32.81 103.579 34.67C103.579 37.01 103.159 39.15 102.319 41.09C101.499 43.01 100.349 44.67 98.8694 46.07C97.3894 47.47 95.6194 48.56 93.5594 49.34C91.5194 50.1 89.2794 50.48 86.8394 50.48C85.4194 50.48 84.0594 50.33 82.7594 50.03C81.4794 49.73 80.2694 49.33 79.1294 48.83C78.0094 48.31 76.9694 47.72 76.0094 47.06C75.0494 46.38 74.1794 45.66 73.3994 44.9L76.2794 41.06C76.5794 40.66 76.9294 40.36 77.3294 40.16C77.7294 39.94 78.1594 39.83 78.6194 39.83C79.2194 39.83 79.7794 40 80.2994 40.34C80.8394 40.66 81.4194 41.02 82.0394 41.42C82.6794 41.8 83.4194 42.15 84.2594 42.47C85.0994 42.79 86.1394 42.95 87.3794 42.95C88.6194 42.95 89.6794 42.75 90.5594 42.35C91.4394 41.93 92.1494 41.37 92.6894 40.67C93.2494 39.95 93.6494 39.12 93.8894 38.18C94.1494 37.22 94.2794 36.2 94.2794 35.12C94.2794 33 93.6794 31.39 92.4794 30.29C91.2794 29.17 89.5794 28.61 87.3794 28.61C85.4194 28.61 83.4994 28.98 81.6194 29.72L75.8594 28.16L79.5794 6.29H101.959V10.13C101.959 10.77 101.859 11.35 101.659 11.87C101.459 12.39 101.139 12.85 100.699 13.25C100.279 13.63 99.7194 13.93 99.0194 14.15C98.3194 14.35 97.4794 14.45 96.4994 14.45H86.0594L84.8294 21.68ZM110.724 57.41C110.284 57.05 110.064 56.61 110.064 56.09C110.064 55.89 110.134 55.67 110.274 55.43C110.414 55.21 110.584 55.01 110.784 54.83C111.024 54.59 111.304 54.29 111.624 53.93C111.944 53.59 112.264 53.21 112.584 52.79C112.904 52.37 113.194 51.91 113.454 51.41C113.734 50.91 113.944 50.38 114.084 49.82C113.404 49.76 112.784 49.59 112.224 49.31C111.664 49.03 111.184 48.67 110.784 48.23C110.384 47.77 110.074 47.25 109.854 46.67C109.634 46.07 109.524 45.42 109.524 44.72C109.524 44.08 109.644 43.49 109.884 42.95C110.124 42.39 110.464 41.91 110.904 41.51C111.364 41.09 111.894 40.76 112.494 40.52C113.114 40.28 113.804 40.16 114.564 40.16C115.464 40.16 116.244 40.32 116.904 40.64C117.564 40.94 118.114 41.36 118.554 41.9C118.994 42.42 119.314 43.03 119.514 43.73C119.734 44.41 119.844 45.13 119.844 45.89C119.844 46.89 119.684 47.96 119.364 49.1C119.044 50.22 118.564 51.35 117.924 52.49C117.304 53.63 116.524 54.75 115.584 55.85C114.644 56.95 113.564 57.95 112.344 58.85L110.724 57.41ZM156.728 28.13C156.728 31.95 156.318 35.26 155.498 38.06C154.678 40.86 153.538 43.18 152.078 45.02C150.638 46.86 148.918 48.23 146.918 49.13C144.938 50.03 142.788 50.48 140.468 50.48C138.148 50.48 135.998 50.03 134.018 49.13C132.058 48.23 130.358 46.86 128.918 45.02C127.478 43.18 126.348 40.86 125.528 38.06C124.728 35.26 124.328 31.95 124.328 28.13C124.328 24.31 124.728 21 125.528 18.2C126.348 15.4 127.478 13.08 128.918 11.24C130.358 9.4 132.058 8.04 134.018 7.16C135.998 6.26 138.148 5.81 140.468 5.81C142.788 5.81 144.938 6.26 146.918 7.16C148.918 8.04 150.638 9.4 152.078 11.24C153.538 13.08 154.678 15.4 155.498 18.2C156.318 21 156.728 24.31 156.728 28.13ZM147.128 28.13C147.128 25.11 146.938 22.64 146.558 20.72C146.178 18.78 145.668 17.26 145.028 16.16C144.408 15.06 143.698 14.31 142.898 13.91C142.098 13.49 141.288 13.28 140.468 13.28C139.648 13.28 138.838 13.49 138.038 13.91C137.258 14.31 136.558 15.06 135.938 16.16C135.338 17.26 134.848 18.78 134.468 20.72C134.108 22.64 133.928 25.11 133.928 28.13C133.928 31.17 134.108 33.65 134.468 35.57C134.848 37.49 135.338 39.01 135.938 40.13C136.558 41.23 137.258 41.99 138.038 42.41C138.838 42.81 139.648 43.01 140.468 43.01C141.288 43.01 142.098 42.81 142.898 42.41C143.698 41.99 144.408 41.23 145.028 40.13C145.668 39.01 146.178 37.49 146.558 35.57C146.938 33.65 147.128 31.17 147.128 28.13ZM192.733 28.13C192.733 31.95 192.323 35.26 191.503 38.06C190.683 40.86 189.543 43.18 188.083 45.02C186.643 46.86 184.923 48.23 182.923 49.13C180.943 50.03 178.793 50.48 176.473 50.48C174.153 50.48 172.003 50.03 170.023 49.13C168.063 48.23 166.363 46.86 164.923 45.02C163.483 43.18 162.353 40.86 161.533 38.06C160.733 35.26 160.333 31.95 160.333 28.13C160.333 24.31 160.733 21 161.533 18.2C162.353 15.4 163.483 13.08 164.923 11.24C166.363 9.4 168.063 8.04 170.023 7.16C172.003 6.26 174.153 5.81 176.473 5.81C178.793 5.81 180.943 6.26 182.923 7.16C184.923 8.04 186.643 9.4 188.083 11.24C189.543 13.08 190.683 15.4 191.503 18.2C192.323 21 192.733 24.31 192.733 28.13ZM183.133 28.13C183.133 25.11 182.943 22.64 182.563 20.72C182.183 18.78 181.673 17.26 181.033 16.16C180.413 15.06 179.703 14.31 178.903 13.91C178.103 13.49 177.293 13.28 176.473 13.28C175.653 13.28 174.843 13.49 174.043 13.91C173.263 14.31 172.563 15.06 171.943 16.16C171.343 17.26 170.853 18.78 170.473 20.72C170.113 22.64 169.933 25.11 169.933 28.13C169.933 31.17 170.113 33.65 170.473 35.57C170.853 37.49 171.343 39.01 171.943 40.13C172.563 41.23 173.263 41.99 174.043 42.41C174.843 42.81 175.653 43.01 176.473 43.01C177.293 43.01 178.103 42.81 178.903 42.41C179.703 41.99 180.413 41.23 181.033 40.13C181.673 39.01 182.183 37.49 182.563 35.57C182.943 33.65 183.133 31.17 183.133 28.13ZM228.737 28.13C228.737 31.95 228.327 35.26 227.507 38.06C226.687 40.86 225.547 43.18 224.087 45.02C222.647 46.86 220.927 48.23 218.927 49.13C216.947 50.03 214.797 50.48 212.477 50.48C210.157 50.48 208.007 50.03 206.027 49.13C204.067 48.23 202.367 46.86 200.927 45.02C199.487 43.18 198.357 40.86 197.537 38.06C196.737 35.26 196.337 31.95 196.337 28.13C196.337 24.31 196.737 21 197.537 18.2C198.357 15.4 199.487 13.08 200.927 11.24C202.367 9.4 204.067 8.04 206.027 7.16C208.007 6.26 210.157 5.81 212.477 5.81C214.797 5.81 216.947 6.26 218.927 7.16C220.927 8.04 222.647 9.4 224.087 11.24C225.547 13.08 226.687 15.4 227.507 18.2C228.327 21 228.737 24.31 228.737 28.13ZM219.137 28.13C219.137 25.11 218.947 22.64 218.567 20.72C218.187 18.78 217.677 17.26 217.037 16.16C216.417 15.06 215.707 14.31 214.907 13.91C214.107 13.49 213.297 13.28 212.477 13.28C211.657 13.28 210.847 13.49 210.047 13.91C209.267 14.31 208.567 15.06 207.947 16.16C207.347 17.26 206.857 18.78 206.477 20.72C206.117 22.64 205.937 25.11 205.937 28.13C205.937 31.17 206.117 33.65 206.477 35.57C206.857 37.49 207.347 39.01 207.947 40.13C208.567 41.23 209.267 41.99 210.047 42.41C210.847 42.81 211.657 43.01 212.477 43.01C213.297 43.01 214.107 42.81 214.907 42.41C215.707 41.99 216.417 41.23 217.037 40.13C217.677 39.01 218.187 37.49 218.567 35.57C218.947 33.65 219.137 31.17 219.137 28.13ZM263.392 33.17H252.292V45.11H244.732V33.17H233.692V26.51H244.732V14.63H252.292V26.51H263.392V33.17Z" fill="url(#paint0_linear_63_745)"/>
<defs>
<linearGradient id="paint0_linear_63_745" x1="-0.5" y1="-9" x2="74.2559" y2="102.415" gradientUnits="userSpaceOnUse">
<stop stop-color="#27D59D"/>
<stop offset="1" stop-color="#28BDD9"/>
</linearGradient>
</defs>
</svg>
